<?xml version="1.0" encoding="UTF-8" standalone="no"?>
<!-- Created with Inkscape (http://www.inkscape.org/) -->

<svg
   version="1.1"
   id="svg1"
   width="1122.52"
   height="793.70135"
   viewBox="0 0 1122.52 793.70135"
   sodipodi:docname="image_2025-03-07_11-19-09.svg"
   inkscape:version="1.3.2 (091e20e, 2023-11-25, custom)"
   inkscape:export-filename="Give_and_Take_.png"
   inkscape:export-xdpi="96"
   inkscape:export-ydpi="96"
   xmlns:inkscape="http://www.inkscape.org/namespaces/inkscape"
   xmlns:sodipodi="http://sodipodi.sourceforge.net/DTD/sodipodi-0.dtd"
   xmlns="http://www.w3.org/2000/svg"
   xmlns:svg="http://www.w3.org/2000/svg">
  <defs
     id="defs1">
    <clipPath
       clipPathUnits="userSpaceOnUse"
       id="clipPath2">
      <path
         d="M 0,595.276 H 841.89 V 0 H 0 Z"
         transform="translate(-131.7636,-508.05872)"
         id="path2" />
    </clipPath>
    <clipPath
       clipPathUnits="userSpaceOnUse"
       id="clipPath4">
      <path
         d="M 0,595.276 H 841.89 V 0 H 0 Z"
         transform="translate(-640.99901,-57.217504)"
         id="path4" />
    </clipPath>
    <clipPath
       clipPathUnits="userSpaceOnUse"
       id="clipPath6">
      <path
         d="M 0,595.276 H 841.89 V 0 H 0 Z"
         transform="translate(-116.013,-321.30261)"
         id="path6" />
    </clipPath>
    <clipPath
       clipPathUnits="userSpaceOnUse"
       id="clipPath8">
      <path
         d="M 0,595.276 H 841.89 V 0 H 0 Z"
         transform="translate(-640.99901,-57.217504)"
         id="path8" />
    </clipPath>
    <clipPath
       clipPathUnits="userSpaceOnUse"
       id="clipPath10">
      <path
         d="M 0,595.276 H 841.89 V 0 H 0 Z"
         transform="translate(-193.2468,-376.03941)"
         id="path10" />
    </clipPath>
    <clipPath
       clipPathUnits="userSpaceOnUse"
       id="clipPath12">
      <path
         d="M 0,595.276 H 841.89 V 0 H 0 Z"
         transform="translate(-671.68742,-279.39601)"
         id="path12" />
    </clipPath>
    <clipPath
       clipPathUnits="userSpaceOnUse"
       id="clipPath14">
      <path
         d="M 0,595.276 H 841.89 V 0 H 0 Z"
         transform="translate(-116.013,-321.30261)"
         id="path14" />
    </clipPath>
    <clipPath
       clipPathUnits="userSpaceOnUse"
       id="clipPath16">
      <path
         d="M 0,595.276 H 841.89 V 0 H 0 Z"
         transform="translate(-697.90622,-174.2281)"
         id="path16" />
    </clipPath>
    <clipPath
       clipPathUnits="userSpaceOnUse"
       id="clipPath18">
      <path
         d="M 0,595.276 H 841.89 V 0 H 0 Z"
         transform="translate(-658.32142,-213.41521)"
         id="path18" />
    </clipPath>
    <clipPath
       clipPathUnits="userSpaceOnUse"
       id="clipPath20">
      <path
         d="M 0,595.276 H 841.89 V 0 H 0 Z"
         transform="translate(-291.45361,-357.21371)"
         id="path20" />
    </clipPath>
    <clipPath
       clipPathUnits="userSpaceOnUse"
       id="clipPath22">
      <path
         d="M 0,595.276 H 841.89 V 0 H 0 Z"
         transform="translate(-247.14571,-445.69631)"
         id="path22" />
    </clipPath>
    <clipPath
       clipPathUnits="userSpaceOnUse"
       id="clipPath24">
      <path
         d="M 0,595.276 H 841.89 V 0 H 0 Z"
         transform="translate(-570.48652,-313.78831)"
         id="path24" />
    </clipPath>
    <clipPath
       clipPathUnits="userSpaceOnUse"
       id="clipPath26">
      <path
         d="M 0,595.276 H 841.89 V 0 H 0 Z"
         transform="translate(-411.50531,-397.79671)"
         id="path26" />
    </clipPath>
    <clipPath
       clipPathUnits="userSpaceOnUse"
       id="clipPath28">
      <path
         d="M 0,595.276 H 841.89 V 0 H 0 Z"
         transform="translate(-470.02651,-358.70901)"
         id="path28" />
    </clipPath>
    <clipPath
       clipPathUnits="userSpaceOnUse"
       id="clipPath30">
      <path
         d="M 0,595.276 H 841.89 V 0 H 0 Z"
         transform="translate(-411.50531,-397.79671)"
         id="path30" />
    </clipPath>
    <clipPath
       clipPathUnits="userSpaceOnUse"
       id="clipPath32">
      <path
         d="M 0,595.276 H 841.89 V 0 H 0 Z"
         transform="translate(-508.18421,-354.28621)"
         id="path32" />
    </clipPath>
    <clipPath
       clipPathUnits="userSpaceOnUse"
       id="clipPath34">
      <path
         d="M 0,595.276 H 841.89 V 0 H 0 Z"
         transform="translate(-212.0635,-470.30441)"
         id="path34" />
    </clipPath>
    <clipPath
       clipPathUnits="userSpaceOnUse"
       id="clipPath36">
      <path
         d="M 0,595.276 H 841.89 V 0 H 0 Z"
         transform="translate(-508.18421,-354.28621)"
         id="path36" />
    </clipPath>
    <clipPath
       clipPathUnits="userSpaceOnUse"
       id="clipPath38">
      <path
         d="M 0,595.276 H 841.89 V 0 H 0 Z"
         transform="translate(-518.04431,-261.9839)"
         id="path38" />
    </clipPath>
    <clipPath
       clipPathUnits="userSpaceOnUse"
       id="clipPath40">
      <path
         d="M 0,595.276 H 841.89 V 0 H 0 Z"
         transform="translate(-301.98511,-231.98861)"
         id="path40" />
    </clipPath>
    <clipPath
       clipPathUnits="userSpaceOnUse"
       id="clipPath42">
      <path
         d="M 0,595.276 H 841.89 V 0 H 0 Z"
         transform="translate(-210.57391,-299.56331)"
         id="path42" />
    </clipPath>
    <clipPath
       clipPathUnits="userSpaceOnUse"
       id="clipPath44">
      <path
         d="M 0,595.276 H 841.89 V 0 H 0 Z"
         transform="translate(-503.00951,-191.4467)"
         id="path44" />
    </clipPath>
    <clipPath
       clipPathUnits="userSpaceOnUse"
       id="clipPath46">
      <path
         d="M 0,595.276 H 841.89 V 0 H 0 Z"
         transform="translate(-169.9911,-243.21271)"
         id="path46" />
    </clipPath>
    <clipPath
       clipPathUnits="userSpaceOnUse"
       id="clipPath48">
      <path
         d="M 0,595.276 H 841.89 V 0 H 0 Z"
         transform="translate(-194.7664,-375.30651)"
         id="path48" />
    </clipPath>
    <clipPath
       clipPathUnits="userSpaceOnUse"
       id="clipPath50">
      <path
         d="M 0,595.276 H 841.89 V 0 H 0 Z"
         transform="translate(-670.81402,-119.56291)"
         id="path50" />
    </clipPath>
    <clipPath
       clipPathUnits="userSpaceOnUse"
       id="clipPath52">
      <path
         d="M 0,595.276 H 841.89 V 0 H 0 Z"
         transform="translate(-623.70302,-99.217805)"
         id="path52" />
    </clipPath>
    <clipPath
       clipPathUnits="userSpaceOnUse"
       id="clipPath54">
      <path
         d="M 0,595.276 H 841.89 V 0 H 0 Z"
         transform="translate(-644.69711,-108.0074)"
         id="path54" />
    </clipPath>
    <clipPath
       clipPathUnits="userSpaceOnUse"
       id="clipPath56">
      <path
         d="M 0,595.276 H 841.89 V 0 H 0 Z"
         transform="translate(-626.95661,-103.45951)"
         id="path56" />
    </clipPath>
    <clipPath
       clipPathUnits="userSpaceOnUse"
       id="clipPath58">
      <path
         d="M 0,595.276 H 841.89 V 0 H 0 Z"
         transform="translate(-637.94201,-127.0708)"
         id="path58" />
    </clipPath>
    <clipPath
       clipPathUnits="userSpaceOnUse"
       id="clipPath60">
      <path
         d="M 0,595.276 H 841.89 V 0 H 0 Z"
         transform="translate(-645.74462,-111.8861)"
         id="path60" />
    </clipPath>
    <clipPath
       clipPathUnits="userSpaceOnUse"
       id="clipPath62">
      <path
         d="M 0,595.276 H 841.89 V 0 H 0 Z"
         transform="translate(-649.07291,-78.975799)"
         id="path62" />
    </clipPath>
    <clipPath
       clipPathUnits="userSpaceOnUse"
       id="clipPath64">
      <path
         d="M 0,595.276 H 841.89 V 0 H 0 Z"
         transform="translate(-649.66132,-145.87561)"
         id="path64" />
    </clipPath>
    <clipPath
       clipPathUnits="userSpaceOnUse"
       id="clipPath66">
      <path
         d="M 0,595.276 H 841.89 V 0 H 0 Z"
         transform="translate(-637.97992,-127.0279)"
         id="path66" />
    </clipPath>
    <clipPath
       clipPathUnits="userSpaceOnUse"
       id="clipPath68">
      <path
         d="M 0,595.276 H 841.89 V 0 H 0 Z"
         transform="translate(-141.69621,-422.07331)"
         id="path68" />
    </clipPath>
    <clipPath
       clipPathUnits="userSpaceOnUse"
       id="clipPath70">
      <path
         d="M 0,595.276 H 841.89 V 0 H 0 Z"
         transform="translate(-170.82141,-435.44771)"
         id="path70" />
    </clipPath>
    <clipPath
       clipPathUnits="userSpaceOnUse"
       id="clipPath72">
      <path
         d="M 0,595.276 H 841.89 V 0 H 0 Z"
         transform="translate(-181.7013,-460.78051)"
         id="path72" />
    </clipPath>
    <clipPath
       clipPathUnits="userSpaceOnUse"
       id="clipPath74">
      <path
         d="M 0,595.276 H 841.89 V 0 H 0 Z"
         transform="translate(-177.79791,-423.73691)"
         id="path74" />
    </clipPath>
    <clipPath
       clipPathUnits="userSpaceOnUse"
       id="clipPath76">
      <path
         d="M 0,595.276 H 841.89 V 0 H 0 Z"
         transform="translate(-149.7711,-415.37231)"
         id="path76" />
    </clipPath>
    <clipPath
       clipPathUnits="userSpaceOnUse"
       id="clipPath78">
      <path
         d="M 0,595.276 H 841.89 V 0 H 0 Z"
         transform="translate(-171.963,-414.66881)"
         id="path78" />
    </clipPath>
    <clipPath
       clipPathUnits="userSpaceOnUse"
       id="clipPath80">
      <path
         d="M 0,595.276 H 841.89 V 0 H 0 Z"
         transform="translate(-192.2434,-447.08341)"
         id="path80" />
    </clipPath>
    <clipPath
       clipPathUnits="userSpaceOnUse"
       id="clipPath82">
      <path
         d="M 0,595.276 H 841.89 V 0 H 0 Z"
         transform="translate(-156.9327,-445.66341)"
         id="path82" />
    </clipPath>
    <clipPath
       clipPathUnits="userSpaceOnUse"
       id="clipPath84">
      <path
         d="M 0,595.276 H 841.89 V 0 H 0 Z"
         transform="translate(-155.8276,-454.70181)"
         id="path84" />
    </clipPath>
    <clipPath
       clipPathUnits="userSpaceOnUse"
       id="clipPath86">
      <path
         d="M 0,595.276 H 841.89 V 0 H 0 Z"
         transform="translate(-158.44131,-396.26271)"
         id="path86" />
    </clipPath>
    <clipPath
       clipPathUnits="userSpaceOnUse"
       id="clipPath88">
      <path
         d="M 0,595.276 H 841.89 V 0 H 0 Z"
         transform="translate(-168.208,-412.41881)"
         id="path88" />
    </clipPath>
    <clipPath
       clipPathUnits="userSpaceOnUse"
       id="clipPath90">
      <path
         d="M 0,595.276 H 841.89 V 0 H 0 Z"
         transform="translate(-143.8638,-450.51161)"
         id="path90" />
    </clipPath>
    <clipPath
       clipPathUnits="userSpaceOnUse"
       id="clipPath92">
      <path
         d="M 0,595.276 H 841.89 V 0 H 0 Z"
         transform="translate(-190.7337,-461.04441)"
         id="path92" />
    </clipPath>
    <clipPath
       clipPathUnits="userSpaceOnUse"
       id="clipPath94">
      <path
         d="M 0,595.276 H 841.89 V 0 H 0 Z"
         transform="translate(-172.08501,-476.30831)"
         id="path94" />
    </clipPath>
    <clipPath
       clipPathUnits="userSpaceOnUse"
       id="clipPath96">
      <path
         d="M 0,595.276 H 841.89 V 0 H 0 Z"
         transform="translate(-185.07711,-433.95521)"
         id="path96" />
    </clipPath>
    <clipPath
       clipPathUnits="userSpaceOnUse"
       id="clipPath98">
      <path
         d="M 0,595.276 H 841.89 V 0 H 0 Z"
         transform="translate(-175.99431,-387.08081)"
         id="path98" />
    </clipPath>
    <clipPath
       clipPathUnits="userSpaceOnUse"
       id="clipPath100">
      <path
         d="M 0,595.276 H 841.89 V 0 H 0 Z"
         transform="translate(-149.7309,-473.89901)"
         id="path100" />
    </clipPath>
    <clipPath
       clipPathUnits="userSpaceOnUse"
       id="clipPath102">
      <path
         d="M 0,595.276 H 841.89 V 0 H 0 Z"
         transform="translate(-697.90622,-174.2281)"
         id="path102" />
    </clipPath>
    <clipPath
       clipPathUnits="userSpaceOnUse"
       id="clipPath104">
      <path
         d="M 0,595.276 H 841.89 V 0 H 0 Z"
         transform="translate(-714.96692,-244.78031)"
         id="path104" />
    </clipPath>
    <clipPath
       clipPathUnits="userSpaceOnUse"
       id="clipPath106">
      <path
         d="M 0,595.276 H 841.89 V 0 H 0 Z"
         transform="translate(-695.38901,-266.4896)"
         id="path106" />
    </clipPath>
    <clipPath
       clipPathUnits="userSpaceOnUse"
       id="clipPath108">
      <path
         d="M 0,595.276 H 841.89 V 0 H 0 Z"
         transform="translate(-704.65112,-214.61351)"
         id="path108" />
    </clipPath>
    <clipPath
       clipPathUnits="userSpaceOnUse"
       id="clipPath110">
      <path
         d="M 0,595.276 H 841.89 V 0 H 0 Z"
         transform="translate(-671.05772,-211.59071)"
         id="path110" />
    </clipPath>
    <clipPath
       clipPathUnits="userSpaceOnUse"
       id="clipPath112">
      <path
         d="M 0,595.276 H 841.89 V 0 H 0 Z"
         transform="translate(-712.78872,-182.9368)"
         id="path112" />
    </clipPath>
    <clipPath
       clipPathUnits="userSpaceOnUse"
       id="clipPath114">
      <path
         d="M 0,595.276 H 841.89 V 0 H 0 Z"
         transform="translate(-706.82182,-217.0589)"
         id="path114" />
    </clipPath>
    <clipPath
       clipPathUnits="userSpaceOnUse"
       id="clipPath116">
      <path
         d="M 0,595.276 H 841.89 V 0 H 0 Z"
         transform="translate(-688.68482,-241.5077)"
         id="path116" />
    </clipPath>
    <clipPath
       clipPathUnits="userSpaceOnUse"
       id="clipPath118">
      <path
         d="M 0,595.276 H 841.89 V 0 H 0 Z"
         transform="translate(-694.51642,-262.38071)"
         id="path118" />
    </clipPath>
    <clipPath
       clipPathUnits="userSpaceOnUse"
       id="clipPath120">
      <path
         d="M 0,595.276 H 841.89 V 0 H 0 Z"
         transform="translate(-715.91422,-175.99261)"
         id="path120" />
    </clipPath>
    <clipPath
       clipPathUnits="userSpaceOnUse"
       id="clipPath122">
      <path
         d="M 0,595.276 H 841.89 V 0 H 0 Z"
         transform="translate(-689.43902,-236.03)"
         id="path122" />
    </clipPath>
    <clipPath
       clipPathUnits="userSpaceOnUse"
       id="clipPath124">
      <path
         d="M 0,595.276 H 841.89 V 0 H 0 Z"
         transform="translate(-676.16801,-212.47261)"
         id="path124" />
    </clipPath>
    <clipPath
       clipPathUnits="userSpaceOnUse"
       id="clipPath126">
      <path
         d="M 0,595.276 H 841.89 V 0 H 0 Z"
         transform="translate(-164.8716,-250.06741)"
         id="path126" />
    </clipPath>
    <clipPath
       clipPathUnits="userSpaceOnUse"
       id="clipPath128">
      <path
         d="M 0,595.276 H 841.89 V 0 H 0 Z"
         transform="translate(-142.2187,-268.82551)"
         id="path128" />
    </clipPath>
    <clipPath
       clipPathUnits="userSpaceOnUse"
       id="clipPath130">
      <path
         d="M 0,595.276 H 841.89 V 0 H 0 Z"
         transform="translate(-137.02551,-238.06651)"
         id="path130" />
    </clipPath>
    <clipPath
       clipPathUnits="userSpaceOnUse"
       id="clipPath132">
      <path
         d="M 0,595.276 H 841.89 V 0 H 0 Z"
         transform="translate(-154.26291,-248.56751)"
         id="path132" />
    </clipPath>
    <clipPath
       clipPathUnits="userSpaceOnUse"
       id="clipPath134">
      <path
         d="M 0,595.276 H 841.89 V 0 H 0 Z"
         transform="translate(-141.47931,-259.7657)"
         id="path134" />
    </clipPath>
    <clipPath
       clipPathUnits="userSpaceOnUse"
       id="clipPath136">
      <path
         d="M 0,595.276 H 841.89 V 0 H 0 Z"
         transform="translate(-158.3788,-286.66951)"
         id="path136" />
    </clipPath>
    <clipPath
       clipPathUnits="userSpaceOnUse"
       id="clipPath138">
      <path
         d="M 0,595.276 H 841.89 V 0 H 0 Z"
         transform="translate(-144.5034,-294.33481)"
         id="path138" />
    </clipPath>
    <clipPath
       clipPathUnits="userSpaceOnUse"
       id="clipPath140">
      <path
         d="M 0,595.276 H 841.89 V 0 H 0 Z"
         transform="translate(-143.7094,-245.89681)"
         id="path140" />
    </clipPath>
    <clipPath
       clipPathUnits="userSpaceOnUse"
       id="clipPath142">
      <path
         d="M 0,595.276 H 841.89 V 0 H 0 Z"
         transform="translate(-139.5576,-227.49791)"
         id="path142" />
    </clipPath>
    <clipPath
       clipPathUnits="userSpaceOnUse"
       id="clipPath144">
      <path
         d="M 0,595.276 H 841.89 V 0 H 0 Z"
         transform="translate(-154.26231,-299.17451)"
         id="path144" />
    </clipPath>
    <clipPath
       clipPathUnits="userSpaceOnUse"
       id="clipPath146">
      <path
         d="M 0,595.276 H 841.89 V 0 H 0 Z"
         transform="translate(-589.56091,-257.96821)"
         id="path146" />
    </clipPath>
    <clipPath
       clipPathUnits="userSpaceOnUse"
       id="clipPath148">
      <path
         d="M 0,595.276 H 841.89 V 0 H 0 Z"
         transform="translate(-570.48652,-313.78831)"
         id="path148" />
    </clipPath>
    <clipPath
       clipPathUnits="userSpaceOnUse"
       id="clipPath150">
      <path
         d="M 0,595.276 H 841.89 V 0 H 0 Z"
         transform="translate(-590.42332,-264.85481)"
         id="path150" />
    </clipPath>
    <clipPath
       clipPathUnits="userSpaceOnUse"
       id="clipPath152">
      <path
         d="M 0,595.276 H 841.89 V 0 H 0 Z"
         transform="translate(-335.02311,-381.22071)"
         id="path152" />
    </clipPath>
    <clipPath
       clipPathUnits="userSpaceOnUse"
       id="clipPath154">
      <path
         d="M 0,595.276 H 841.89 V 0 H 0 Z"
         transform="translate(-329.04031,-398.43081)"
         id="path154" />
    </clipPath>
    <clipPath
       clipPathUnits="userSpaceOnUse"
       id="clipPath156">
      <path
         d="M 0,595.276 H 841.89 V 0 H 0 Z"
         transform="translate(-333.77631,-420.68771)"
         id="path156" />
    </clipPath>
    <clipPath
       clipPathUnits="userSpaceOnUse"
       id="clipPath158">
      <path
         d="M 0,595.276 H 841.89 V 0 H 0 Z"
         transform="translate(-307.28131,-391.70991)"
         id="path158" />
    </clipPath>
    <clipPath
       clipPathUnits="userSpaceOnUse"
       id="clipPath160">
      <path
         d="M 0,595.276 H 841.89 V 0 H 0 Z"
         transform="translate(-214.0006,-412.52331)"
         id="path160" />
    </clipPath>
    <clipPath
       clipPathUnits="userSpaceOnUse"
       id="clipPath162">
      <path
         d="M 0,595.276 H 841.89 V 0 H 0 Z"
         transform="translate(-226.10631,-408.61701)"
         id="path162" />
    </clipPath>
    <clipPath
       clipPathUnits="userSpaceOnUse"
       id="clipPath164">
      <path
         d="M 0,595.276 H 841.89 V 0 H 0 Z"
         transform="translate(-210.5302,-387.22521)"
         id="path164" />
    </clipPath>
    <clipPath
       clipPathUnits="userSpaceOnUse"
       id="clipPath166">
      <path
         d="M 0,595.276 H 841.89 V 0 H 0 Z"
         transform="translate(-222.2941,-442.21141)"
         id="path166" />
    </clipPath>
    <clipPath
       clipPathUnits="userSpaceOnUse"
       id="clipPath168">
      <path
         d="M 0,595.276 H 841.89 V 0 H 0 Z"
         transform="translate(-227.77801,-427.05731)"
         id="path168" />
    </clipPath>
    <clipPath
       clipPathUnits="userSpaceOnUse"
       id="clipPath170">
      <path
         d="M 0,595.276 H 841.89 V 0 H 0 Z"
         transform="translate(-203.50791,-411.85271)"
         id="path170" />
    </clipPath>
    <clipPath
       clipPathUnits="userSpaceOnUse"
       id="clipPath172">
      <path
         d="M 0,595.276 H 841.89 V 0 H 0 Z"
         transform="translate(-212.39061,-452.77211)"
         id="path172" />
    </clipPath>
    <clipPath
       clipPathUnits="userSpaceOnUse"
       id="clipPath174">
      <path
         d="M 0,595.276 H 841.89 V 0 H 0 Z"
         transform="translate(-235.80801,-458.72381)"
         id="path174" />
    </clipPath>
    <clipPath
       clipPathUnits="userSpaceOnUse"
       id="clipPath176">
      <path
         d="M 0,595.276 H 841.89 V 0 H 0 Z"
         transform="translate(-203.77081,-423.47081)"
         id="path176" />
    </clipPath>
    <clipPath
       clipPathUnits="userSpaceOnUse"
       id="clipPath178">
      <path
         d="M 0,595.276 H 841.89 V 0 H 0 Z"
         transform="translate(-531.46441,-324.26921)"
         id="path178" />
    </clipPath>
    <clipPath
       clipPathUnits="userSpaceOnUse"
       id="clipPath180">
      <path
         d="M 0,595.276 H 841.89 V 0 H 0 Z"
         transform="translate(-420.39621,-367.65451)"
         id="path180" />
    </clipPath>
    <clipPath
       clipPathUnits="userSpaceOnUse"
       id="clipPath182">
      <path
         d="M 0,595.276 H 841.89 V 0 H 0 Z"
         transform="translate(-437.04761,-363.99601)"
         id="path182" />
    </clipPath>
    <clipPath
       clipPathUnits="userSpaceOnUse"
       id="clipPath184">
      <path
         d="M 0,595.276 H 841.89 V 0 H 0 Z"
         transform="translate(-475.57031,-371.17761)"
         id="path184" />
    </clipPath>
    <clipPath
       clipPathUnits="userSpaceOnUse"
       id="clipPath186">
      <path
         d="M 0,595.276 H 841.89 V 0 H 0 Z"
         transform="translate(-431.91691,-223.8449)"
         id="path186" />
    </clipPath>
    <clipPath
       clipPathUnits="userSpaceOnUse"
       id="clipPath188">
      <path
         d="M 0,595.276 H 841.89 V 0 H 0 Z"
         transform="translate(-341.01131,-246.98791)"
         id="path188" />
    </clipPath>
    <clipPath
       clipPathUnits="userSpaceOnUse"
       id="clipPath190">
      <path
         d="M 0,595.276 H 841.89 V 0 H 0 Z"
         transform="translate(-518.04431,-261.9839)"
         id="path190" />
    </clipPath>
    <clipPath
       clipPathUnits="userSpaceOnUse"
       id="clipPath192">
      <path
         d="M 0,595.276 H 841.89 V 0 H 0 Z"
         transform="translate(-301.98511,-231.98861)"
         id="path192" />
    </clipPath>
    <clipPath
       clipPathUnits="userSpaceOnUse"
       id="clipPath194">
      <path
         d="M 0,595.276 H 841.89 V 0 H 0 Z"
         transform="translate(-507.53911,-212.32211)"
         id="path194" />
    </clipPath>
    <clipPath
       clipPathUnits="userSpaceOnUse"
       id="clipPath196">
      <path
         d="M 0,595.276 H 841.89 V 0 H 0 Z"
         transform="translate(-440.04721,-272.91511)"
         id="path196" />
    </clipPath>
    <clipPath
       clipPathUnits="userSpaceOnUse"
       id="clipPath198">
      <path
         d="M 0,595.276 H 841.89 V 0 H 0 Z"
         transform="translate(-512.81542,-235.10681)"
         id="path198" />
    </clipPath>
    <clipPath
       clipPathUnits="userSpaceOnUse"
       id="clipPath200">
      <path
         d="M 0,595.276 H 841.89 V 0 H 0 Z"
         transform="translate(-454.59981,-255.94921)"
         id="path200" />
    </clipPath>
    <clipPath
       clipPathUnits="userSpaceOnUse"
       id="clipPath202">
      <path
         d="M 0,595.276 H 841.89 V 0 H 0 Z"
         transform="translate(-169.9911,-243.21271)"
         id="path202" />
    </clipPath>
    <clipPath
       clipPathUnits="userSpaceOnUse"
       id="clipPath204">
      <path
         d="M 0,595.276 H 841.89 V 0 H 0 Z"
         transform="translate(-183.541,-274.7567)"
         id="path204" />
    </clipPath>
    <clipPath
       clipPathUnits="userSpaceOnUse"
       id="clipPath206">
      <path
         d="M 0,595.276 H 841.89 V 0 H 0 Z"
         transform="translate(-194.2117,-267.36251)"
         id="path206" />
    </clipPath>
    <clipPath
       clipPathUnits="userSpaceOnUse"
       id="clipPath208">
      <path
         d="M 0,595.276 H 841.89 V 0 H 0 Z"
         transform="translate(-183.541,-274.7567)"
         id="path208" />
    </clipPath>
    <clipPath
       clipPathUnits="userSpaceOnUse"
       id="clipPath210">
      <path
         d="M 0,595.276 H 841.89 V 0 H 0 Z"
         transform="translate(-176.6529,-248.47901)"
         id="path210" />
    </clipPath>
    <clipPath
       clipPathUnits="userSpaceOnUse"
       id="clipPath212">
      <path
         d="M 0,595.276 H 841.89 V 0 H 0 Z"
         transform="translate(-188.79921,-292.26421)"
         id="path212" />
    </clipPath>
    <clipPath
       clipPathUnits="userSpaceOnUse"
       id="clipPath214">
      <path
         d="M 0,595.276 H 841.89 V 0 H 0 Z"
         transform="translate(-192.04521,-235.80311)"
         id="path214" />
    </clipPath>
    <clipPath
       clipPathUnits="userSpaceOnUse"
       id="clipPath216">
      <path
         d="M 0,595.276 H 841.89 V 0 H 0 Z"
         transform="translate(-194.0268,-279.2108)"
         id="path216" />
    </clipPath>
    <clipPath
       clipPathUnits="userSpaceOnUse"
       id="clipPath218">
      <path
         d="M 0,595.276 H 841.89 V 0 H 0 Z"
         transform="translate(-462.18771,-204.7226)"
         id="path218" />
    </clipPath>
    <clipPath
       clipPathUnits="userSpaceOnUse"
       id="clipPath220">
      <path
         d="M 0,595.276 H 841.89 V 0 H 0 Z"
         transform="translate(-429.93801,-205.16881)"
         id="path220" />
    </clipPath>
    <clipPath
       clipPathUnits="userSpaceOnUse"
       id="clipPath222">
      <path
         d="M 0,595.276 H 841.89 V 0 H 0 Z"
         transform="translate(-446.02291,-214.3142)"
         id="path222" />
    </clipPath>
    <clipPath
       clipPathUnits="userSpaceOnUse"
       id="clipPath224">
      <path
         d="M 0,595.276 H 841.89 V 0 H 0 Z"
         transform="translate(-449.49541,-214.81421)"
         id="path224" />
    </clipPath>
    <clipPath
       clipPathUnits="userSpaceOnUse"
       id="clipPath226">
      <path
         d="M 0,595.276 H 841.89 V 0 H 0 Z"
         transform="translate(-440.50101,-209.92411)"
         id="path226" />
    </clipPath>
    <clipPath
       clipPathUnits="userSpaceOnUse"
       id="clipPath228">
      <path
         d="M 0,595.276 H 841.89 V 0 H 0 Z"
         transform="translate(-451.69141,-201.45701)"
         id="path228" />
    </clipPath>
    <clipPath
       clipPathUnits="userSpaceOnUse"
       id="clipPath230">
      <path
         d="M 0,595.276 H 841.89 V 0 H 0 Z"
         transform="translate(-471.68551,-203.8364)"
         id="path230" />
    </clipPath>
  </defs>
  <sodipodi:namedview
     id="namedview1"
     pagecolor="#ffffff"
     bordercolor="#000000"
     borderopacity="0.25"
     inkscape:showpageshadow="2"
     inkscape:pageopacity="0.0"
     inkscape:pagecheckerboard="0"
     inkscape:deskcolor="#d1d1d1"
     inkscape:zoom="0.36214995"
     inkscape:cx="1242.5792"
     inkscape:cy="769.01847"
     inkscape:window-width="1920"
     inkscape:window-height="1009"
     inkscape:window-x="-8"
     inkscape:window-y="-8"
     inkscape:window-maximized="1"
     inkscape:current-layer="layer-MC0">
    <inkscape:page
       x="0"
       y="0"
       inkscape:label="1"
       id="page1"
       width="1122.52"
       height="793.70135"
       margin="71.228264 153.89999 66.286667 153.61467"
       bleed="0"
       inkscape:export-filename="give_and_take_color.png"
       inkscape:export-xdpi="96"
       inkscape:export-ydpi="96" />
  </sodipodi:namedview>
  <g
     id="layer-MC0"
     inkscape:groupmode="layer"
     inkscape:label="Layer 1">
    <path
       id="path1"
       d="m 0,0 c 3.846,4.879 7.292,10.039 11.841,14.392 15.564,14.896 34.003,21.686 55.442,19.916 15.574,-1.286 31.132,-2.808 46.666,-4.51 11.977,-1.313 23.969,-2.258 35.994,-2.979 13.803,-0.827 27.619,-1.89 41.427,-1.319 13.636,0.564 27.305,0.753 40.886,2.715 9.196,1.329 18.535,1.681 27.814,2.406 12.995,1.017 25.988,2.066 38.995,2.906 4.341,0.28 8.704,0.678 13.026,0.729 8.603,0.103 17.187,0.697 25.765,1.049 12.434,0.511 24.881,0.841 37.303,1.463 24.094,1.206 48.183,0.091 72.265,0.652 13.733,0.32 27.445,-0.355 41.137,-0.942 12.62,-0.54 25.377,-0.951 37.733,-3.818 12.593,-2.923 24.194,-8.369 34.425,-16.454 17.08,-13.497 27.845,-30.945 32.228,-52.22 1.071,-5.198 1.652,-10.593 1.662,-15.899 0.108,-59.723 0.06,-119.445 0.054,-179.168 -2.955,-0.762 -5.969,-0.35 -8.929,-0.235 -9.979,0.388 -19.938,1.107 -29.733,3.241 -3.058,0.666 -6.026,1.615 -8.925,2.8 -4.356,1.78 -4.776,1.57 -6.505,-2.959 -1.029,-1.545 -2.453,-0.774 -3.728,-0.568 -11.001,1.776 -18.921,8.618 -25.923,16.503 -9.726,10.953 -20.638,20.01 -34.244,25.9 -10.501,4.546 -20.738,9.72 -31.274,14.219 -1.152,0.492 -2.302,1 -2.82,2.286 -0.837,4.309 0.921,8.321 1.532,12.45 0.706,4.776 1.753,9.509 2.6,14.27 0.232,1.307 0.798,2.674 -0.286,3.893 -6.604,2.008 -13.501,2.395 -20.22,3.744 -3.78,0.76 -7.594,1.472 -11.436,1.947 -8.104,1.258 -16.151,2.834 -24.237,4.196 -6.238,0.424 -12.388,1.592 -18.516,2.663 -28.888,5.054 -57.867,9.555 -86.775,14.485 -1.723,0.294 -3.456,0.531 -5.103,1.162 -1.015,0.417 -1.817,1.142 -2.638,1.837 -6.691,5.65 -14.901,7.988 -23.023,10.469 -12.067,3.684 -24.458,6.193 -36.511,9.931 -3.338,1.035 -6.632,2.225 -9.808,3.707 -0.927,0.433 -1.987,1.058 -1.853,2.122 0.146,1.154 1.419,1.245 2.405,1.365 1.751,0.213 3.481,-0.053 5.223,-0.254 8.421,-0.97 16.698,-0.122 24.836,2.174 2.988,0.843 5.446,2.5 7.118,5.163 1.56,2.484 1.122,3.846 -1.642,4.878 -2.108,0.786 -4.321,1.242 -6.536,1.641 -18.077,3.259 -36.297,5.521 -54.548,7.481 -12.775,1.372 -25.008,-1.341 -37.178,-5.218 -8.873,-2.826 -18.133,-3.564 -27.209,-0.102 -1.605,0.613 -3.448,0.988 -3.822,3.127 0.021,1.683 1.125,2.716 2.297,3.663 1.551,1.254 3.109,2.501 4.681,3.73 1.605,1.255 4.308,1.996 3.912,4.511 -0.407,2.585 -3.172,2.902 -5.25,3.587 -3.209,1.058 -6.584,1.882 -9.908,1.79 -10.758,-0.298 -20.678,2.772 -30.416,6.826 -0.703,0.279 -1.364,0.656 -2.092,0.877 C 52.565,-27.054 27.499,-15.165 2.926,-2.232 1.821,-1.651 0.689,-1.119 0,0"
       style="fill:#deeae8;fill-opacity:1;fill-rule:nonzero;stroke:#000000;stroke-opacity:1;stroke-width:0.63950011;stroke-dasharray:none"
       transform="matrix(1.5637214,0,0,-1.5637214,109.22816,70.709155)"
       clip-path="url(#clipPath2)" />
    <path
       id="path3"
       d="m 0,0 c -3.521,-1.547 -7.34,-0.82 -10.992,-1.242 -21.319,-2.465 -42.764,-2.947 -64.19,-2.284 -12.312,0.381 -24.647,0.635 -36.937,1.472 -11.778,0.802 -23.559,1.494 -35.341,2.219 -14.254,0.878 -28.5,1.976 -42.735,3.094 -11.655,0.916 -23.318,1.443 -34.97,2.22 -16.23,1.083 -32.449,0.695 -48.653,0.452 -12.339,-0.184 -24.713,-0.041 -37.019,-0.773 -8.364,-0.497 -16.709,-0.112 -25.039,-0.611 -14.428,-0.864 -28.878,-1.004 -43.309,-1.587 -15.187,-0.613 -30.374,-1.017 -45.558,-1.557 -7.22,-0.258 -14.442,-0.527 -21.662,-0.522 -18.485,0.012 -34.428,6.732 -48.253,18.78 -10.78,9.395 -18.729,20.891 -23.932,34.104 -4.054,10.292 -5.864,21.116 -6.502,32.256 -0.829,14.479 -0.397,28.94 -0.56,43.407 -0.087,7.681 -0.154,15.374 0.767,23.027 0.971,0.87 2.165,1.249 3.411,1.402 19.182,2.36 38.227,5.638 57.324,8.56 1.046,-0.064 2.03,0.293 3.037,0.487 8.575,2.611 16.722,0.86 24.73,-2.41 1.266,-0.517 2.552,-1.002 3.86,-1.41 4.346,-1.356 5.025,-0.634 4.474,3.782 -0.549,4.39 -1.475,8.917 1.308,13.018 2.396,1.19 4.874,0.74 7.31,0.263 5.749,-1.128 11.314,-2.904 16.825,-4.876 11.199,-4.005 22.95,-5.467 34.582,-7.505 3.451,-0.604 7.287,-0.212 10.105,-3.036 1.041,-3.22 0.247,-6.415 -0.095,-9.628 -0.614,-5.757 -0.223,-6.416 5.459,-7.556 22.75,-4.569 45.534,-8.962 68.302,-13.442 42.594,-8.381 85.184,-16.787 127.811,-25.003 3.549,-0.684 7.012,-1.796 10.615,-2.186 1.721,-0.607 2.748,0.72 3.981,1.454 8.073,4.807 15.744,10.274 24.081,14.649 2.803,0.239 4.647,-1.647 6.561,-3.157 9.713,-7.659 19.583,-15.055 30.623,-20.772 3.978,-2.06 8.041,-3.995 11.66,-6.729 7.318,-5.528 13.472,-12.266 19.646,-18.951 4.389,-4.752 8.967,-9.361 12.874,-14.552 0.436,-1.644 -0.469,-2.903 -1.289,-4.132 -2.155,-3.233 -1.802,-6.19 0.455,-9.29 7.112,-9.773 15.01,-18.906 22.754,-28.162 1.436,-1.715 2.864,-3.444 4.303,-5.158 C -7.323,4.712 -4.813,0.928 0,0"
       style="fill:#deeae8;fill-opacity:1;fill-rule:nonzero;stroke:#000000;stroke-opacity:1;stroke-width:0.63950011;stroke-dasharray:none"
       transform="matrix(1.5637214,0,0,-1.5637214,905.53048,775.69922)"
       clip-path="url(#clipPath4)" />
    <path
       id="path5"
       d="m 0,0 c -0.553,1.926 -0.723,3.88 -0.718,5.891 0.04,16.837 0.028,33.674 0.022,50.511 -0.008,26.476 -0.032,52.951 -0.015,79.426 0.001,1.451 -0.441,3.012 0.615,4.332 1.73,-1.581 1.237,-3.698 1.241,-5.627 C 1.19,115.076 1.163,95.619 1.176,76.162 1.179,70.307 1.365,69.965 7.1,68.541 26.245,63.786 45.692,60.579 65.135,57.36 c 3.811,-0.631 7.579,-1.55 11.459,-1.717 0.842,-0.109 1.641,-0.39 2.44,-0.655 2.801,-0.852 5.75,-1.043 8.56,-1.863 5.807,-1.932 10.315,-5.927 15.067,-9.533 6.377,-4.838 6.511,-4.774 8.087,2.921 0.897,4.375 1.721,8.818 5.583,11.812 12.14,-1.318 24.246,-2.949 35.136,-8.961 7.624,-4.209 15.241,-8.419 23.047,-12.28 0.674,-0.333 1.3,-0.732 1.758,-1.357 0.515,-0.76 0.585,-1.611 0.572,-2.493 -0.166,-10.777 -1.795,-21.469 -1.865,-32.252 -0.003,-0.493 -0.201,-0.967 -0.391,-1.425 -1.145,-1.833 -3.027,-1.997 -4.908,-2.118 -8.194,-0.527 -16.356,-1.402 -24.524,-2.207 -10.722,-1.058 -20.62,-4.57 -29.826,-10.091 -4.408,-2.643 -9.197,-4.428 -13.968,-6.221 -2.172,-0.817 -4.497,-1.551 -6.923,-0.863 -1.424,1.935 -0.566,3.793 0.221,5.636 1.439,3.37 3.819,6.113 6.007,8.987 0.825,1.085 1.827,2.272 1.204,3.724 -0.7,1.629 -2.363,1.615 -3.858,1.717 -6.096,0.42 -11.878,-1.187 -17.615,-2.884 -7.026,-2.079 -14.115,-2.958 -21.393,-1.8 -1.372,0.219 -2.734,0.092 -4.103,-0.013 -0.858,-0.066 -1.696,0.199 -2.555,0.116 C 36.051,-5.587 19.856,-3.714 3.679,-1.663 2.298,-1.488 1.016,-1.019 0,0"
       style="fill:#deeae8;fill-opacity:1;fill-rule:nonzero;stroke:#000000;stroke-opacity:1;stroke-width:0.63950011;stroke-dasharray:none"
       transform="matrix(1.5637214,0,0,-1.5637214,84.598604,362.74369)"
       clip-path="url(#clipPath6)" />
    <path
       id="path7"
       d="m 0,0 c -3.136,-0.427 -5.369,0.859 -7.357,3.291 -9.675,11.838 -19.705,23.378 -29.111,35.45 -3.837,4.925 -4.989,9.214 -0.935,14.288 0.365,0.456 0.44,1.144 0.65,1.725 1.533,3.33 4.182,5.778 6.586,8.435 6.776,7.486 13.377,15.099 16.489,25.01 1.863,5.932 3.255,11.997 5.079,17.938 0.951,3.1 2.146,6.106 4.704,8.32 3.876,1.353 7.33,-0.009 10.755,-1.65 12.036,-5.769 23.592,-12.425 35.235,-18.923 12.076,-6.741 24.1,-13.576 36.236,-20.208 1.842,-1.006 3.903,-1.772 4.776,-3.957 C 75.363,37.074 54.531,16.508 23.6,5.276 15.964,2.503 8.004,1.144 0,0"
       style="fill:#8ebcb2;fill-opacity:1;fill-rule:nonzero;stroke:#000000;stroke-opacity:1;stroke-width:0.63950011;stroke-dasharray:none"
       transform="matrix(1.5637214,0,0,-1.5637214,905.53048,775.69922)"
       clip-path="url(#clipPath8)" />
    <path
       id="path9"
       d="m 0,0 c -7.061,-0.208 -13.814,1.838 -20.687,2.934 -16.875,2.692 -33.688,5.75 -50.278,9.901 -6.349,1.588 -6.341,1.624 -6.343,8.118 -0.007,21.49 -0.014,42.981 -0.021,64.47 1.583,16.79 6.614,32.407 15.846,46.596 3.736,-1.103 6.937,-3.312 10.361,-5.052 22.434,-11.396 45.084,-22.324 68.377,-31.875 1.013,-1.414 0.131,-2.637 -0.462,-3.827 C 12.858,83.362 10.583,75.079 9.866,66.22 9.317,59.443 6.75,53.145 2.744,47.539 0.558,44.481 -1.35,41.259 -2.599,37.704 -4.647,31.876 -2.7,26.369 -0.992,20.899 0.616,15.751 1.818,10.557 1.772,5.134 1.756,3.238 1.572,1.372 0,0"
       style="fill:#da7861;fill-opacity:1;fill-rule:nonzero;stroke:#000000;stroke-opacity:1;stroke-width:0.63950011;stroke-dasharray:none"
       transform="matrix(1.5637214,0,0,-1.5637214,205.37076,277.15058)"
       clip-path="url(#clipPath10)" />
    <path
       id="path11"
       d="m 0,0 c 0.516,6.52 1.495,6.992 7.57,4.402 8.32,-3.547 17.217,-4.542 26.116,-5.227 6.185,-0.477 12.378,-1.072 18.605,-0.881 0.808,0.024 1.632,-0.462 2.449,-0.712 -0.029,-40.175 -0.057,-80.35 -0.085,-120.525 -0.907,-1.143 -1.848,-0.383 -2.619,0.088 l -40.204,25.61 c -6.223,3.924 -12.449,7.859 -18.474,12.101 -4.665,3.284 -7.113,7.581 -7.032,13.267 0.03,2.117 -0.316,4.231 -0.029,6.352 4.974,11.118 10.429,22.101 12.991,34.069 1.179,5.512 1.564,11.263 0.769,17.064 C -0.591,-9.665 -0.83,-4.799 0,0"
       style="fill:#7ba89e;fill-opacity:1;fill-rule:nonzero;stroke:#000000;stroke-opacity:1;stroke-width:0.63950011;stroke-dasharray:none"
       transform="matrix(1.5637214,0,0,-1.5637214,953.51859,428.27393)"
       clip-path="url(#clipPath12)"
       sodipodi:nodetypes="cccccccccccccc" />
    <path
       id="path13"
       clip-path="url(#clipPath14)"
       style="fill:#e38569;fill-opacity:1;fill-rule:nonzero;stroke:#000000;stroke-opacity:1;stroke-width:0.63950011;stroke-dasharray:none"
       d="M -5.2828126e-4,-7.1859377e-4 C -0.04852823,-0.87271772 -0.13675875,-1.7434656 -0.13675875,-2.6154648 c -0.007,-35.3449642 -0.008605,-70.6902172 0.004395,-106.0341852 0,-0.994 0.15191024,-1.98796 0.23291016,-2.98095 8.22799179,1.06899 16.47316059,2.0263 24.68115259,3.2373 12.249988,1.807 24.473997,3.79264 36.708985,5.70264 1.373229,0.6428 1.791206,1.75688 1.779785,2.923826 0.188578,-0.707326 0.374986,-1.414996 0.571289,-2.121096 0.868,-0.033 1.82838,-0.32613 2.588379,-0.0571 5.984994,2.123001 11.69728,0.84368 17.405274,-1.13232 3.626997,-1.255 7.249825,-2.58223 10.965821,-3.51123 3.368997,-0.843 4.432401,0.30921 3.587402,3.63721 -1.219998,4.80199 -1.191565,9.565399 -0.08057,14.358394 2.115006,6.231994 3.150296,12.256175 0.0293,18.722168 -3.422997,7.093993 -3.261767,14.708192 -0.61377,22.138185 2.340996,6.568993 1.857106,12.834799 -1.58789,18.862793 -1.276999,2.234998 -1.961707,4.551862 -1.574707,7.13086 -0.268,1.937998 0.340297,3.652626 1.154296,5.390625 1.665999,3.554996 4.404517,6.338374 6.603517,9.5053711 2.385,3.4369965 1.44984,5.5976606 -2.764161,5.95166028 -4.120996,0.34599966 -8.281703,0.20036988 -12.2417,-0.99462888 -9.85199,-2.9739971 -19.753706,-5.1766118 -30.137696,-3.5786134 -0.829999,0.1269999 -1.760727,0.1978391 -2.469726,-0.5141602 -0.340938,-0.4220738 -0.578016,-0.8857677 -0.773438,-1.3652344 -0.02719,0.6813995 -0.204422,1.3282145 -0.717773,1.9350586 -17.818982,1.002999 -35.535863,3.0232057 -53.21484481126,5.40820330623 z"
       transform="matrix(1.5637214,0,0,-1.5637214,84.598604,362.74369)"
       sodipodi:nodetypes="cccccccccccccccccccccccccc" />
    <path
       id="path15"
       d="m 0,0 c 9.362,-6.113 18.491,-12.597 28.436,-17.776 0.439,-9.927 -0.298,-19.766 -2.235,-29.515 -16.453,9.254 -32.897,18.524 -49.361,27.759 -8.892,4.988 -17.832,9.883 -26.989,14.38 -3.325,1.632 -6.683,2.664 -10.407,2.162 -6.343,2.979 -11.168,7.586 -15.045,13.406 -5.21,7.822 -7.554,16.79 -10.612,25.471 -1.461,4.146 -3.561,7.965 -5.39,11.924 -0.638,1.381 -1.889,2.833 -0.317,4.426 4.975,1.652 9.907,-0.148 14.845,-0.306 13.074,-0.419 24.437,-6.622 36.19,-11.431 0.584,-0.239 0.964,-0.778 1.3,-1.313 1.489,-1.645 0.61,-3.596 0.555,-5.368 -0.176,-5.591 1.986,-9.863 6.628,-12.94 9.209,-6.103 18.271,-12.435 25.3365,-16.657"
       style="fill:#deeae8;fill-opacity:1;fill-rule:nonzero;stroke:#000000;stroke-opacity:1;stroke-width:0.63950011;stroke-dasharray:none"
       transform="matrix(1.5637214,0,0,-1.5637214,994.51749,592.72724)"
       clip-path="url(#clipPath16)"
       sodipodi:nodetypes="ccccccccsccscccc" />
    <path
       id="path17"
       d="m 0,0 c -7.083,2.741 -14.184,5.434 -21.244,8.233 -10.076,3.996 -20.703,3.847 -31.257,4.294 -1.649,-0.462 -2.183,0.911 -2.831,1.862 -5.336,7.831 -11.528,14.979 -17.63,22.198 -0.886,1.049 -1.746,2.118 -7.9805,9.243 -6.2345,7.125 -8.9955,10.66 -12.0825,13.914 -1.548,1.633 -3.607,3.215 -3.197,5.995 2.261,6.61 2.955,13.547 4.245,20.353 0.667,3.517 1.824,6.944 1.888,10.588 0.023,1.346 0.639,2.648 1.643,3.661 2.314,1.589 4.555,0.187 6.807,-0.22 1.466,-0.264 2.895,-0.72 4.446,-1.043 -3.216,2.727 -7.907,3.123 -10.272,6.955 -0.537,5.281 1.375,10.217 2.156,15.309 0.184,1.197 0.579,2.438 1.972,2.903 16.599,-7.059 33.302,-13.929 48.789,-23.288 7.425,-4.487 13.337,-10.818 19.002,-17.286 3.805,-4.344 8.137,-7.956 12.745,-11.39 C 2.072,68.65 7.656,67.249 13.366,65.98 14.572,52.804 16.156,39.733 11.647,26.66 8.752,18.265 4.251,10.525 2.106,1.882 1.791,0.615 0.586,0.743 0,0"
       style="fill:#e79372;fill-opacity:1;fill-rule:nonzero;stroke:#000000;stroke-opacity:1;stroke-width:0.63950011;stroke-dasharray:none"
       transform="matrix(1.5637214,0,0,-1.5637214,932.6179,531.44952)"
       clip-path="url(#clipPath18)"
       sodipodi:nodetypes="cccsccccccccccccscccccc" />
    <path
       id="path19"
       d="m 0,0 c -7.386,2.706 -14.176,6.645 -20.85,10.679 -9.044,5.467 -18.951,7.885 -29.16,9.589 -3.058,0.511 -6.113,1.044 -9.17,1.568 -0.254,0.613 -0.271,1.295 0.065,1.806 3.135,4.761 3.415,9.936 2.721,15.43 -0.909,7.205 1.01,13.821 5.163,19.765 3.901,5.582 5.598,11.562 3.846,18.359 -0.756,2.935 -0.693,5.939 0.696,8.765 0.531,1.08 0.777,2.447 2.381,2.522 3.053,-3.364 7.261,-4.095 11.379,-4.44 8.173,-0.684 16.199,0.543 23.884,3.397 12.888,4.784 26.116,4.863 39.494,3.213 15.691,-1.934 31.385,-3.862 46.949,-6.68 2.693,-0.487 5.379,-1.085 8.003,-1.853 3.345,-0.978 4.066,-2.931 2.206,-5.913 -1.687,-2.704 -3.971,-4.771 -7.091,-5.798 -8.555,-2.817 -17.34,-3.241 -26.236,-2.588 -2.323,0.17 -4.65,0.308 -7.075,0.06 5.148,-3.032 10.745,-4.789 16.403,-6.379 14.748,-4.145 29.844,-7.091 44.145,-12.777 4.073,-1.62 7.983,-3.53 11.06,-6.785 -1.069,-2.364 -3.106,-1.638 -4.845,-1.368 -5.903,0.916 -11.822,1.736 -17.707,2.757 -9.535,1.819 -19.102,3.469 -28.737,4.67 C 62.9,48.576 58.733,46.482 54.469,45.197 L 16.512,34.335 C 16.21,34.137 15.89,33.979 15.56,33.837 13.686,33.189 11.671,32.843 10.233,31.276 3.267,30.062 2.861,24.662 2.714,19.259 2.573,14.066 2.682,8.868 1.872,3.713 1.644,2.265 1.753,0.669 0,0"
       style="fill:#e79372;fill-opacity:1;fill-rule:nonzero;stroke:#000000;stroke-opacity:1;stroke-width:0.63950011;stroke-dasharray:none"
       transform="matrix(1.5637214,0,0,-1.5637214,358.93884,306.58872)"
       clip-path="url(#clipPath20)"
       sodipodi:nodetypes="cccccccccccccccccccccccccccccccc" />
    <path
       id="path21"
       d="m 0,0 c -2.693,-3.653 -3.055,-7.819 -2.021,-11.984 1.478,-5.951 0.591,-11.251 -2.959,-16.25 -5.664,-7.977 -7.35,-16.701 -5.587,-26.428 0.786,-4.339 -1.811,-8.355 -4.305,-11.985 -3.391,-4.529 -4.638,-9.782 -5.136,-15.28 -0.354,-3.904 -1.619,-4.66 -4.907,-2.5 -3.204,2.104 -6.184,4.549 -9.27,6.834 -2.892,2.141 -5.946,4.017 -9.193,5.573 -20.400638,4.428956 -10.461444,2.02306 -8.739,7.249 -0.737,6.811 -1.955,13.517 -4.277,19.984 -2.623,7.308 -1.151,14.096 3.189,20.17 5.584,7.815 8.583,16.26 9.33,25.914 0.583,7.546 3.202,14.805 7.063,21.471 0.44,0.759 0.791,1.566 1.73,1.84 7.661,-2.451 14.998,-6.15 23.248,-6.364 C -6.605,18.108 -1.4,17.87 3.672,16.523 5.7,15.985 7.739,15.317 9.605,14.375 13.02,12.65 13.171,10.537 10.069,8.217 6.594,5.618 2.806,3.415 0,0"
       style="fill:#da7861;fill-opacity:1;fill-rule:nonzero;stroke:#000000;stroke-opacity:1;stroke-width:0.63950011;stroke-dasharray:none"
       transform="matrix(1.5637214,0,0,-1.5637214,289.65362,168.22658)"
       clip-path="url(#clipPath22)"
       sodipodi:nodetypes="cccccccccccsccccccsc" />
    <path
       id="path23"
       d="m 0,0 c -2.195,-7.389 -2.703,-15.129 -4.62,-22.558 -1.128,-4.372 -0.23,-9.322 -3.555,-13.092 -2.812,0.3 -3.907,2.881 -5.81,4.386 -1.236,0.978 -2.203,2.71 -4.091,2.041 -1.804,-0.639 -1.893,-2.551 -2.149,-4.096 -0.837,-5.049 1.131,-9.565 2.965,-14.072 1.276,-3.136 3.494,-5.756 4.976,-8.791 0.845,-1.729 1.36,-3.492 1.12,-5.414 -0.342,-2.73 -1.863,-3.474 -4.117,-1.864 -1.823,1.301 -3.526,2.806 -5.143,4.344 -8.861,8.423 -17.755,16.808 -26.931,24.888 -0.673,0.592 -1.166,1.299 -1.291,2.217 0.664,6.607 2.116,13.077 6.4805,31.1415 4.3645,18.0645 5.8795,24.8655 7.3625,31.6695 0.37,1.699 0.984,3.105 2.651,3.781 4.055,1.646 7.667,4.137 11.588,6.027 4.676,4.731 11.11,6.432 16.735,9.499 4.104,2.237 8.239,4.615 12.801,5.959 1.453,-1.113 0.552,-2.46 0.353,-3.721 C 7.827,42.836 5.215,33.515 4.497,23.873 2.43,17.864 1.791,11.578 0.894,5.342 1.388,3.429 1.216,1.627 0,0"
       style="fill:#6aa9c4;fill-opacity:1;fill-rule:nonzero;stroke:#000000;stroke-opacity:1;stroke-width:0.63950011;stroke-dasharray:none"
       transform="matrix(1.5637214,0,0,-1.5637214,795.26858,374.49395)"
       clip-path="url(#clipPath24)"
       sodipodi:nodetypes="ccccccccccccccccccccccc" />
    <path
       id="path25"
       d="m 0,0 c 11.509,-1.897 23.016,-3.814 34.529,-5.686 16.405,-2.668 32.86,-5.06 49.204,-8.057 7.815,-1.434 15.691,-2.443 23.49,-3.934 1.215,-0.233 2.462,-0.293 3.694,-0.433 2.016,-1.831 -0.072,-2.212 -1.076,-2.665 -4.31,-1.947 -8.807,-3.433 -13.232,-5.092 -11.878,-4.454 -23.835,-8.698 -35.619,-13.401 -0.927,-0.37 -1.875,-0.674 -2.884,-0.747 -3.547,-0.182 -6.957,0.831 -10.361,1.482 -7.351,1.406 -14.904,1.656 -22.109,3.861 -3.941,0.969 -7.851,2.118 -11.97,2.078 -1.928,-0.091 -3.614,0.729 -5.338,1.413 -7.722,1.617 -15.575,2.477 -23.299,4.078 -5.791,-0.327 -11.501,0.457 -17.197,1.296 -2.875,0.423 -6.011,0.393 -7.861,3.314 -0.408,2.113 1.189,2.85 2.601,3.604 10.91,5.821 21.683,11.888 32.492,17.89 C -3.41,-0.151 -1.831,0.587 0,0"
       style="fill:#81c8e0;fill-opacity:1;fill-rule:nonzero;stroke:#000000;stroke-opacity:1;stroke-width:0.63950011;stroke-dasharray:none"
       transform="matrix(1.5637214,0,0,-1.5637214,546.66625,243.12821)"
       clip-path="url(#clipPath26)" />
    <path
       id="path27"
       d="m 0,0 c 13.301,5.029 26.6,10.063 39.904,15.084 3.817,1.44 7.638,2.87 11.482,4.235 0.897,0.318 1.748,0.444 1.011,1.659 8.027,-1.453 16.133,-2.485 24.056,-4.496 0.065,-1.84 -1.574,-2.084 -2.677,-2.702 C 63.643,8.102 53.361,2.699 43.027,-2.602 c -1.669,-0.856 -3.316,-1.75 -4.818,-2.889 -1.733,-1.285 -2.407,-3.102 -2.707,-5.15 -2.097,-14.302 -4.819,-28.504 -6.897,-42.81 -0.108,-0.741 -0.238,-1.478 -0.412,-2.206 -0.872,-3.653 -2.082,-4.33 -5.158,-2.282 -2.274,1.514 -4.212,1.709 -6.529,0.324 -1.902,-1.136 -3.825,-0.929 -5.525,0.597 -0.185,0.166 -0.378,0.428 -0.587,0.449 -5.006,0.506 -9.512,3.18 -14.386,3.724 -3.958,0.443 -4.635,0.33 -4.19,4.371 1.381,12.52 3.759,24.896 5.385,37.382 C -2.304,-7.31 -2.36,-3.334 0,0"
       style="fill:#c9e2e7;fill-opacity:1;fill-rule:nonzero;stroke:#000000;stroke-opacity:1;stroke-width:0.63950011;stroke-dasharray:none"
       transform="matrix(1.5637214,0,0,-1.5637214,638.17712,304.2505)"
       clip-path="url(#clipPath28)" />
    <path
       id="path29"
       d="m 0,0 c -2.922,-0.462 -5.231,-2.274 -7.729,-3.62 -10.295,-5.548 -20.534,-11.198 -30.777,-16.842 -0.514,-0.283 -0.867,-0.861 -1.294,-1.301 -1.807,-1.685 -2.654,-3.77 -3.071,-6.213 -1.554,-9.099 -2.724,-18.256 -4.197,-27.363 -0.933,-5.767 -1.882,-11.558 -3.209,-17.257 -0.976,-4.189 -2.053,-4.655 -5.621,-2.451 -2.003,1.238 -3.716,1.198 -5.532,-0.055 -2.324,-1.604 -4.404,-1.379 -6.322,0.692 -1.404,1.515 -3.1,1.991 -5.1,1.351 -1.944,-0.621 -3.691,-0.484 -4.977,1.371 -1.167,1.682 -2.92,1.8 -4.702,1.562 -3.051,-0.407 -3.939,1.168 -4.004,3.893 -0.079,3.294 0.875,6.416 1.293,9.623 1.5,11.494 3.488,22.918 4.91,34.424 0.299,2.417 0.385,5.122 3.328,6.196 16.631,6.211 33.241,12.484 49.78,18.946 1.069,0.417 2.187,0.376 3.261,0.65 C -17.857,3.309 -11.911,1.89 -5.889,1.003 -4.286,0.766 -2.714,0.193 -1.24,1.358 -0.826,0.905 -0.413,0.452 0,0"
       style="fill:#c9e2e7;fill-opacity:1;fill-rule:nonzero;stroke:#000000;stroke-opacity:1;stroke-width:0.63950011;stroke-dasharray:none"
       transform="matrix(1.5637214,0,0,-1.5637214,546.66625,243.12821)"
       clip-path="url(#clipPath30)" />
    <path
       id="path31"
       d="m 0,0 c 10.645,5.731 21.296,11.449 31.929,17.202 2.158,1.168 4.246,2.466 6.367,3.704 4.154,0.326 8.091,-1.104 12.137,-1.624 6.991,-0.897 13.9,-2.44 20.842,-3.713 C 64.002,10.612 55.799,7.417 48.015,3.439 45.89,2.353 44.061,1.211 42.65,-0.655 40.983,0.39 39.717,-0.901 38.614,-1.638 33.092,-5.327 27.194,-6.766 20.608,-5.493 15.379,-4.482 10.034,-4.246 4.776,-3.371 2.735,-2.88 -0.523,-4.112 0,0"
       style="fill:#81c8e0;fill-opacity:1;fill-rule:nonzero;stroke:#000000;stroke-opacity:1;stroke-width:0.63950011;stroke-dasharray:none"
       transform="matrix(1.5637214,0,0,-1.5637214,697.84513,311.16651)"
       clip-path="url(#clipPath32)" />
    <path
       id="path33"
       d="m 0,0 c -5.594,-8.968 -7.849,-18.939 -8.936,-29.296 -0.675,-6.437 -3.005,-12.342 -6.913,-17.481 -6.177,-8.121 -7.639,-16.729 -3.703,-26.272 2.201,-5.335 2.358,-11.118 3.022,-16.772 0.385,-1.82 0.555,-3.609 -0.767,-5.177 -0.507,0.244 -1.013,0.488 -1.52,0.733 1.725,6.656 0.757,13.259 -1.667,19.384 -4.236,10.706 -3.251,20.221 3.895,29.397 4.609,5.919 6.363,13.019 6.924,20.547 0.558,7.48 2.838,14.606 6.209,21.35 0.714,1.428 1.83,2.702 1.894,4.414 C -1.041,0.551 -0.521,0.276 0,0"
       style="fill:#fabeaa;fill-opacity:1;fill-rule:nonzero;stroke:#000000;stroke-opacity:1;stroke-width:0.63950011;stroke-dasharray:none"
       transform="matrix(1.5637214,0,0,-1.5637214,234.79483,129.74637)"
       clip-path="url(#clipPath34)" />
    <path
       id="path35"
       d="m 0,0 c 0.608,-3.463 3.411,-1.914 5.348,-2.342 2.272,-2.648 5.581,-1.569 8.356,-2.04 3.403,-0.577 6.794,-1.357 10.261,-1.714 3.472,-0.358 4.031,-1.65 3.323,-5.117 -1.041,-5.091 -2.206,-10.15 -3.667,-15.138 -0.353,-1.205 -0.518,-2.417 -4.4645,-22.1875 C 15.21,-68.309 14.744,-70.487 14.284,-72.665 c -1.776,-1.248 -2.675,0.365 -3.73,1.215 -2.815,2.269 -5.651,4.513 -9.082,5.773 -2.342,0.86 -4.983,1.911 -6.916,-0.461 -1.867,-2.291 -1.268,-4.922 0.219,-7.313 3.514,-5.647 7.989,-10.461 12.999,-14.791 1.337,-1.155 2.72,-2.218 2.852,-4.172 -0.011,-1.73 -0.398,-3.372 -1.164,-4.922 -1.454,-1.33 -2.594,-0.279 -3.556,0.638 -7.237,6.903 -15.403,12.636 -23.334,18.669 -2.854,2.171 -6.128,3.382 -9.539,4.121 -3.09,0.668 -5.075,-1.257 -4.933,-4.421 0.086,-1.932 0.867,-3.65 2.01,-5.162 5.199,-6.88 10.872,-13.297 17.43,-18.965 5.089,-4.398 9.889,-9.13 15.147,-13.347 1.058,-0.848 2.044,-1.86 2.235,-3.347 -0.054,-1.121 -0.208,-2.213 -0.928,-3.137 -2.44,-0.466 -3.956,1.323 -5.514,2.563 -5.856,4.662 -12.269,8.509 -18.333,12.861 -3.065,2.2 -6.525,3.636 -10.023,4.948 -1.778,0.667 -3.869,1.027 -5.269,-0.521 -1.535,-1.696 -1.371,-3.796 -0.451,-5.95 2.399,-5.618 7.017,-9.35 11.345,-13.22 6.772,-6.055 13.832,-11.792 21.135,-17.214 1.203,-0.893 2.403,-1.794 3.015,-3.244 0.439,-1.61 0.344,-3.104 -0.939,-4.337 -1.533,-0.982 -2.83,-0.143 -4.199,0.491 -2.713,1.257 -5.393,2.613 -8.31,3.371 -1.733,0.451 -3.517,0.851 -4.786,-0.893 -1.403,-1.929 -0.843,-3.881 0.488,-5.521 2.995,-3.691 6.543,-6.848 10.121,-9.957 1.42,-1.234 2.951,-2.336 3.357,-4.344 -0.797,-8.774 -3.384,-17.187 -5.213,-25.751 -0.442,-2.072 -0.038,-4.596 -2.352,-5.975 -7.767,0.153 -15.14,2.619 -22.691,3.995 -21.832,3.977 -43.602,8.297 -65.378,12.58 -22.745,4.473 -45.468,9.059 -68.201,13.596 -18.361,3.664 -36.707,7.41 -55.1,10.901 -2.697,0.512 -3.266,1.663 -3.107,3.97 0.306,4.461 0.548,8.927 0.817,13.392 3.407,2.057 6.805,0.31 10.094,-0.256 9.326,-1.604 18.65,-2.892 28.142,-2.398 1.799,0.094 3.635,0.313 4.331,2.258 0.719,2.01 -0.793,3.266 -2.077,4.421 -2.765,2.489 -6.296,3.457 -9.725,4.53 -2.735,0.857 -5.408,1.859 -8.067,2.905 -1.503,0.591 -3.029,1.223 -3.643,2.948 0.361,3.163 2.823,2.433 4.594,2.171 8.742,-1.296 17.524,-2.339 26.212,-3.989 7.91,-1.504 15.901,-1.065 23.871,-0.93 1.96,0.033 3.91,0.594 5.492,2.041 3.34,3.057 2.708,7.644 -1.533,9.273 -2.518,0.967 -4.963,2.396 -7.82,2.272 -3.967,1.129 -8.132,1.552 -11.93,3.3 -6.594,1.868 -13.355,2.922 -20.075,4.174 -1.2,0.223 -2.901,0.174 -2.849,1.766 0.06,1.819 1.883,1.774 3.197,1.755 6.85,-0.104 13.613,-1.283 20.444,-1.711 10.08,-0.633 20.153,-1.039 30.199,0.215 4.904,0.612 6.829,2.661 6.744,6.372 -0.078,3.364 -3.012,5.994 -7.293,6.528 -6.539,0.946 -12.913,2.704 -19.493,3.565 -7.915,1.035 -15.866,1.605 -23.797,2.332 -4.611,0.424 -9.168,1.076 -13.736,1.731 -1.687,0.242 -3.382,0.846 -3.22,2.928 0.153,1.973 2.002,2.039 3.454,2.135 5.968,0.396 11.884,0.929 17.935,0.328 8.193,-0.814 16.474,-0.333 24.717,-0.18 1.001,0.019 1.99,0.238 2.934,0.577 2.36,0.846 4.289,2.215 4.65,4.874 0.356,2.622 -1.408,4.15 -3.362,5.387 -3.481,2.204 -7.552,2.656 -11.451,3.202 -14.469,2.026 -29.067,2.551 -43.65,3.116 -3.898,0.151 -7.576,1.594 -11.486,1.619 -1.477,0.01 -3.268,0.226 -3.247,2.281 0.019,1.838 1.542,2.591 3.112,2.621 5.33,0.101 10.305,1.837 15.383,3.108 4.156,1.039 7.941,2.967 11.671,4.991 1.547,0.84 2.759,2.141 3.83,3.542 1.14,1.492 1.525,3.2 0.894,4.95 -0.725,2.013 -2.64,1.536 -4.184,1.624 -9.001,0.509 -17.958,-0.688 -26.946,-0.703 -1.703,-0.003 -3.545,-0.326 -4.937,1.141 -0.162,11.564 1.309,23.035 2.009,34.55 0.049,0.818 -0.176,1.45 -0.524,2.11 1.391,3.539 1.066,7.319 1.45,10.988 0.463,4.442 0.146,8.923 0.696,13.398 0.465,3.786 1.152,6.76 5.712,7.031 0.931,0.055 1.827,0.698 2.74,1.07 1.722,0.723 3.554,1.161 5.229,2.009 v -10e-4 c 4.744,1.991 9.271,4.759 14.748,4.124 0.792,-1.941 -1.066,-2.161 -1.988,-2.836 -1.802,-1.32 -4.382,-1.595 -4.954,-4.468 -0.224,-1.124 -2.096,-1.138 -3.016,-2.263 2.14,-2.081 4.82,-2.047 7.297,-2.521 5.193,-0.995 10.505,-1.26 15.655,-2.525 -2.88,-1.175 -2.619,-3.987 -2.924,-6.242 -1.774,-13.137 -3.457,-26.285 -5.888,-39.323 -0.159,-0.851 -0.044,-1.753 -0.207,-2.603 -0.723,-3.762 0.756,-5.201 4.461,-4.273 1.618,0.405 3.065,0.329 3.707,-1.429 0.865,-2.368 2.352,-2.629 4.358,-1.568 2.424,1.281 4.288,0.531 5.858,-1.509 1.356,-1.763 2.749,-2.749 4.88,-0.824 2.573,2.325 5.117,2.329 7.642,-0.398 1.762,-1.904 2.629,-0.944 3.014,1.282 1.392,8.047 2.979,16.06 4.321,24.115 1.386,8.311 2.53,16.662 3.878,24.979 0.301,1.853 1.733,2.635 3.582,2.606 1.838,-2.717 4.863,-2.781 7.576,-2.973 5.316,-0.376 10.552,-2.411 15.985,-0.909 0.338,0.094 0.838,-0.399 1.262,-0.619 1.125,-1.883 3.108,-1.31 4.756,-1.612 5.315,-0.975 10.672,-1.71 15.976,-2.748 1.114,-0.218 2.198,-0.379 3.136,0.482 1.437,-0.798 2.813,-1.79 4.609,-1.424 3.89,-1.414 7.862,-2.388 12.042,-2.234 10.993,-1.762 21.986,-3.525 32.979,-5.287 -1.839,-12.123 -3.688,-24.244 -5.514,-36.369 -0.682,-4.526 -1.323,-9.059 -1.96,-13.591 -0.258,-1.836 0.339,-2.587 2.285,-1.854 2.912,1.097 5.431,1.083 7.169,-2.199 1.027,-1.938 3.006,-0.869 4.369,-0.391 1.979,0.694 3.449,0.364 4.621,-1.219 1.679,-2.266 3.647,-2.525 5.729,-0.796 2.359,1.959 4.238,1.657 6.403,-0.416 1.902,-1.821 3.502,-2.592 4.083,1.444 1.978,13.72 4.171,27.416 6.661,41.052 C -3.678,-6.442 -4.839,-1.794 0,0"
       style="fill:#97cee3;fill-opacity:1;fill-rule:nonzero;stroke:#000000;stroke-opacity:1;stroke-width:0.63950011;stroke-dasharray:none"
       transform="matrix(1.5637214,0,0,-1.5637214,697.84513,311.16651)"
       clip-path="url(#clipPath36)"
       sodipodi:nodetypes="cccccscccsscccccscccccccccccccccccccccccccccscccccccccccccccccccccccccscccccsccscccccccccccccccccccccccccccccccccccccccccscccccsccscscccc" />
    <path
       id="path37"
       d="m 0,0 c -0.116,1.398 -1.116,2.119 -2.103,2.923 -5.72,4.657 -10.659,10.048 -14.455,16.373 -1.382,2.302 -1.432,5.025 0.134,7.405 1.601,2.432 4.041,2.13 6.402,1.491 4.262,-1.153 7.806,-3.59 11.118,-6.421 1.005,-0.859 1.682,-2.264 3.328,-2.135 10.971,-10.137 21.942,-20.274 32.912,-30.413 0.644,-0.595 1.281,-1.304 2.267,-0.951 1.071,0.384 0.811,1.416 0.904,2.243 0.353,3.115 -1.548,5.39 -3.019,7.786 -3.156,5.139 -5.656,10.511 -6.378,16.575 -0.102,0.857 -0.393,1.795 -0.166,2.569 0.671,2.293 0.195,5.394 2.979,6.422 2.822,1.043 4.091,-1.764 5.789,-3.261 1.589,-1.401 3.041,-2.957 4.554,-4.448 4.49,-5.16 9.029,-10.273 16.7215,-19.2885 C 68.68,-12.146 72.017,-15.996 75.19,-19.976 c 4.24,-5.319 8.394,-10.707 12.585,-16.065 2.187,-4.998 4.366,-9.998 6.563,-14.99 2.855,-6.488 4.222,-13.481 7.311,-19.944 4.025,-8.417 10.594,-14.235 17.656,-19.77 -3.481,-4.566 -4.963,-9.976 -6.042,-15.427 -2.765,-13.963 -9.508,-25.699 -19.464,-35.669 -2.635,-2.64 -4.5,-5.977 -7.597,-8.171 -4.649,3.8 -8.218,8.637 -12.292,12.981 -6.981,7.441 -13.559,15.325 -22.132,20.995 -5.361,3.546 -11.212,6.352 -16.844,9.489 -8.611,4.797 -16.093,11.169 -23.919,17.067 -1.753,1.322 -3.349,3.023 -5.738,3.271 -5.994,4.224 -11.93,8.525 -17.717,13.03 -0.987,0.768 -1.948,1.546 -2.595,2.642 -3.586,3.427 -7.208,6.818 -10.74,10.299 -1.313,1.296 -2.61,2.686 -3.565,4.247 -1.079,1.766 -1.31,3.73 0.174,5.564 1.365,1.684 2.98,1.821 5.018,1.394 4.56,-0.956 8.375,-3.678 12.727,-5.089 3.194,-0.391 5.286,-3.571 9.051,-3.563 -2.13,3.571 -6.184,4.762 -8.135,8.023 -10.356,8.122 -20.812,16.113 -30.276,25.318 -2.76,2.684 -4.528,5.904 -6.197,9.187 -1.006,1.978 -0.196,4.505 1.161,5.913 1.725,1.788 4.45,1.49 6.682,0.568 9.708,-4.007 17.839,-10.572 26.364,-16.493 2.237,-1.554 4.461,-3.127 6.69,-4.691 3.328,-1.109 5.566,-4.077 9.311,-5.318 -2.879,3.065 -6.283,5.08 -8.459,8.301 -5.872,5.367 -11.594,10.911 -17.656,16.055 -6.884,5.842 -12.752,12.541 -18.045,19.791 -0.645,0.883 -1.07,1.948 -1.476,2.976 -0.967,2.448 -0.486,4.705 1.328,6.545 1.754,1.779 3.842,1.14 5.937,0.57 6.912,-1.882 11.955,-6.79 17.466,-10.865 5.763,-4.261 11.2,-8.964 16.779,-13.473 4.954,-3.089 8.854,-7.474 13.483,-10.964 1.255,-0.946 2.261,-2.294 4.852,-2.542 -3.064,3.493 -5.645,6.555 -8.34,9.532 C 6.193,-6.041 2.642,-3.468 0,0"
       style="fill:#f5b585;fill-opacity:1;fill-rule:nonzero;stroke:#000000;stroke-opacity:1;stroke-width:0.63950011;stroke-dasharray:none"
       transform="matrix(1.5637214,0,0,-1.5637214,713.26358,455.50161)"
       clip-path="url(#clipPath38)"
       sodipodi:nodetypes="cccccscccccsccsccccccccccccccccccccccccccccccccccccccccccc" />
    <path
       id="path39"
       d="m 0,0 c 5.756,-3.549 12.624,-4.288 18.575,-7.348 0.216,-0.111 0.517,-0.075 0.712,-0.206 2.547,-1.719 5.87,-3.285 5.347,-6.867 -0.566,-3.877 -4.114,-3.48 -7.137,-3.62 -11.005,-0.509 -21.713,1.651 -32.453,3.499 -1.495,0.257 -2.954,0.295 -4.439,0.294 -5.667,2.289 -11.769,2.818 -17.686,3.597 -10.657,1.403 -20.87,4.176 -31.005,7.56 -6.334,2.115 -12.711,4.305 -19.579,3.811 -0.916,1.895 -0.035,3.688 0.435,5.443 1.009,3.766 0.822,7.358 -0.76,10.951 -3.502,7.956 -4.19,16.117 -1.338,24.421 2.228,6.488 1.836,12.68 -1.497,18.744 -1.233,2.243 -2.559,4.696 -0.586,7.296 10.155,1.637 18.646,7.23 27.632,11.638 9.082,4.454 18.787,6.244 28.772,7.077 7.674,0.639 15.388,0.926 22.992,2.275 10.733,-0.492 21.414,1.375 32.145,0.714 1.842,-0.113 4.499,0.926 5.182,-1.679 0.645,-2.459 0.667,-5.038 -1.548,-7.269 C 19.22,75.752 13.555,73.589 7.544,71.926 2.279,70.47 -2.89,68.607 -8.486,68.867 c -0.927,0.043 -1.754,-0.454 -1.798,-1.52 -0.053,-1.266 0.985,-1.177 1.837,-1.312 8.984,-1.424 18.072,-1.561 27.119,-2.201 10.05,-0.71 20.196,-0.691 30.102,-2.523 4.202,-0.777 8.907,-0.962 12.438,-4.281 1.863,-1.751 3.225,-3.605 2.511,-6.19 C 63.018,48.291 61.125,46.639 58.651,45.819 57.009,45.274 55.302,44.951 53.516,44.995 44.544,45.22 35.575,44.761 26.59,45.56 21.559,46.008 16.421,45.282 11.333,45.056 10.376,45.014 9.132,45.149 9.252,43.62 c 0.1,-1.266 1.131,-1.451 2.178,-1.587 10.857,-1.404 21.777,-2.151 32.662,-3.228 6.996,-0.693 14.085,-1.409 20.82,-3.738 1.346,-0.465 2.682,-0.496 4.042,-0.601 1.187,-0.662 2.44,-1.205 3.644,-1.829 2.835,-1.468 4.586,-3.404 4.175,-6.743 -0.327,-2.656 -3.111,-5.217 -6.557,-5.832 -3.057,-0.546 -6.152,-0.839 -9.274,-0.923 -13.832,-0.375 -27.561,0.962 -41.276,2.453 -2.522,0.274 -4.926,-0.17 -7.423,-0.529 8.597,-3.484 17.874,-3.981 26.783,-6.064 3.755,-0.989 7.511,-1.978 11.266,-2.967 3.097,-0.867 6.106,-1.962 8.825,-3.707 C 61.243,6.961 62.691,5.112 62.203,2.423 61.735,-0.155 60.008,-1.743 57.508,-2.285 51.876,-3.505 46.159,-3.574 40.443,-3.137 28.186,-2.199 16.133,0.211 3.999,2.028 0.834,2.502 0.338,2.282 0,0"
       style="fill:#f5b585;fill-opacity:1;fill-rule:nonzero;stroke:#000000;stroke-opacity:1;stroke-width:0.63950011;stroke-dasharray:none"
       transform="matrix(1.5637214,0,0,-1.5637214,375.40717,502.4059)"
       clip-path="url(#clipPath40)" />
    <path
       id="path43"
       d="m 0,0 c 6.606,-4.763 13.218,-9.517 19.796,-14.319 0.327,-0.238 0.35,-0.892 0.515,-1.353 -8.69,-5.497 -17.378,-10.999 -26.083,-16.473 -0.235,-0.148 -0.654,-0.004 -0.987,0.004 C -4.52,-21.424 -1.54,-10.863 0,0"
       style="fill:#6baac4;fill-opacity:1;fill-rule:nonzero;stroke:#000000;stroke-opacity:1;stroke-width:0.63950011;stroke-dasharray:none"
       transform="matrix(1.5637214,0,0,-1.5637214,689.75334,565.80215)"
       clip-path="url(#clipPath44)" />
    <path
       id="path45"
       d="m 0,0 c 2.18,-3.76 4.429,-7.482 6.52,-11.291 2.13,-3.877 3.312,-8.049 3.344,-12.507 -0.735,-0.41 -1.403,-1.018 -2.353,-0.803 1.294,1.974 0.874,4.018 0.306,6.098 -1.805,6.602 -5.399,12.257 -9.316,17.746 -2.802,1.779 -3.481,4.567 -3.62,7.612 -0.721,6.224 1.007,12.046 2.895,17.851 2.252,6.922 1.802,13.94 0.746,20.999 -1.257,8.402 -1.522,16.796 0.664,25.121 0.153,0.583 0.04,1.236 0.05,1.856 C -0.267,72.491 0.23,72.3 0.727,72.11 -1.933,62.352 -1.893,52.518 0.172,42.695 1.597,35.909 0.679,29.394 -1.417,22.934 -3.034,17.948 -4.29,12.912 -3.584,7.598 -1.51,5.48 -0.853,2.694 0,0"
       style="fill:#fac2ac;fill-opacity:1;fill-rule:nonzero;stroke:#000000;stroke-opacity:1;stroke-width:0.63950011;stroke-dasharray:none"
       transform="matrix(1.5637214,0,0,-1.5637214,169.00532,484.85453)"
       clip-path="url(#clipPath46)" />
    <path
       id="path49"
       d="m 0,0 c -1.208,0.638 -2.449,1.222 -3.61,1.936 -0.598,0.368 -1.382,0.903 -0.895,1.772 0.456,0.813 1.198,0.579 1.952,0.246 1.002,-0.442 1.821,-1.488 2.97,0.391 C 1.15,5.544 3.245,4.142 3.783,3.238 4.894,1.375 3.006,1.979 2.103,1.691 1.288,1.43 1.589,-0.429 0,0"
       style="fill:#cfede8;fill-opacity:1;fill-rule:nonzero;stroke:#000000;stroke-opacity:1;stroke-width:0.63950011;stroke-dasharray:none"
       transform="matrix(1.5637214,0,0,-1.5637214,952.15284,678.20838)"
       clip-path="url(#clipPath50)" />
    <path
       id="path51"
       d="M 0,0 C 1.313,-1.622 3.298,-2.976 4.195,-5.195 4.425,-5.764 3.542,-6.614 3.101,-6.279 1.257,-4.878 -0.542,-3.336 -1.409,-1.096 -1.651,-0.472 -1.082,0.03 0,0"
       style="fill:#cfefe9;fill-opacity:1;fill-rule:nonzero;stroke:#000000;stroke-opacity:1;stroke-width:0.63950011;stroke-dasharray:none"
       transform="matrix(1.5637214,0,0,-1.5637214,878.48436,710.02245)"
       clip-path="url(#clipPath52)" />
    <path
       id="path53"
       d="M 0,0 C -0.189,-0.817 -0.652,-1.326 -1.287,-0.843 -2.607,0.161 -4.488,0.646 -4.931,2.522 -5.074,3.124 -4.455,3.87 -3.819,3.499 -2.299,2.61 -0.424,1.996 0,0"
       style="fill:#ceede8;fill-opacity:1;fill-rule:nonzero;stroke:#000000;stroke-opacity:1;stroke-width:0.63950011;stroke-dasharray:none"
       transform="matrix(1.5637214,0,0,-1.5637214,911.31328,696.27797)"
       clip-path="url(#clipPath54)" />
    <path
       id="path55"
       d="m 0,0 c 0.151,-1.145 -0.296,-1.843 -0.856,-1.706 -1.862,0.455 -2.382,2.226 -3.035,3.73 -0.247,0.569 0.331,1.32 1.038,0.97 C -1.44,2.294 0.021,1.509 0,0"
       style="fill:#d1efe9;fill-opacity:1;fill-rule:nonzero;stroke:#000000;stroke-opacity:1;stroke-width:0.63950011;stroke-dasharray:none"
       transform="matrix(1.5637214,0,0,-1.5637214,883.57208,703.38961)"
       clip-path="url(#clipPath56)" />
    <path
       id="path57"
       d="m 0,0 c -0.49,-0.881 -1.011,-1.944 -2.206,-1.054 -0.958,0.713 -2.026,1.494 -2.115,2.871 -0.02,0.302 0.218,0.769 0.475,0.912 0.598,0.335 1.202,0.111 1.662,-0.367 0.756,-0.787 1.483,-1.602 2.222,-2.405 z"
       style="fill:#ccebe6;fill-opacity:1;fill-rule:nonzero;stroke:#000000;stroke-opacity:1;stroke-width:0.63950011;stroke-dasharray:none"
       transform="matrix(1.5637214,0,0,-1.5637214,900.75018,666.46812)"
       clip-path="url(#clipPath58)" />
    <path
       id="path59"
       d="M 0,0 C 0.918,-0.864 2.595,-1.176 2.686,-2.951 2.719,-3.586 2.41,-4.361 1.68,-4.025 c -1.324,0.61 -2.479,1.6 -2.974,3.014 C -1.499,-0.426 -0.884,0.051 0,0"
       style="fill:#d0eeea;fill-opacity:1;fill-rule:nonzero;stroke:#000000;stroke-opacity:1;stroke-width:0.63950011;stroke-dasharray:none"
       transform="matrix(1.5637214,0,0,-1.5637214,912.95128,690.21276)"
       clip-path="url(#clipPath60)" />
    <path
       id="path61"
       d="m 0,0 c 0,-0.908 -0.434,-1.395 -1.13,-1.266 -1.584,0.294 -2.065,1.65 -2.426,2.969 -0.181,0.661 0.243,1.411 0.969,1.117 C -1.29,2.296 -0.459,1.19 0,0"
       style="fill:#cbebe6;fill-opacity:1;fill-rule:nonzero;stroke:#000000;stroke-opacity:1;stroke-width:0.63950011;stroke-dasharray:none"
       transform="matrix(1.5637214,0,0,-1.5637214,918.15581,741.67531)"
       clip-path="url(#clipPath62)" />
    <path
       id="path63"
       d="m 0,0 c -0.056,-0.764 -0.478,-1.33 -1.112,-1.289 -1.236,0.079 -1.944,0.972 -2.244,2.101 -0.186,0.696 0.215,1.341 0.955,1.116 C -1.383,1.619 -0.246,1.266 0,0"
       style="fill:#cdede7;fill-opacity:1;fill-rule:nonzero;stroke:#000000;stroke-opacity:1;stroke-width:0.63950011;stroke-dasharray:none"
       transform="matrix(1.5637214,0,0,-1.5637214,919.07591,637.06264)"
       clip-path="url(#clipPath64)" />
    <path
       id="path65"
       d="M 0,0 C 0.179,0.926 -1.133,1.813 -0.144,2.718 0.379,3.196 1.019,2.936 1.513,2.508 2.239,1.88 2.511,1.017 2.139,0.176 1.575,-1.099 0.707,-0.104 -0.038,0.043 -0.038,0.043 0,0 0,0"
       style="fill:#caeae5;fill-opacity:1;fill-rule:nonzero;stroke:#000000;stroke-opacity:1;stroke-width:0.63950011;stroke-dasharray:none"
       transform="matrix(1.5637214,0,0,-1.5637214,900.80946,666.5352)"
       clip-path="url(#clipPath66)" />
    <path
       id="path69"
       d="M 0,0 C 1.256,2.798 3.323,4.163 5.469,5.4 6.347,5.906 7.39,6.099 8.147,5.093 8.902,4.09 8.483,3.239 7.687,2.468 5.633,0.477 3.365,-0.862 0,0"
       style="fill:#f9d0c2;fill-opacity:1;fill-rule:nonzero;stroke:#000000;stroke-opacity:1;stroke-width:0.63950011;stroke-dasharray:none"
       transform="matrix(1.5637214,0,0,-1.5637214,170.30368,184.25254)"
       clip-path="url(#clipPath70)" />
    <path
       id="path71"
       d="M 0,0 C 0.587,-4.43 3.507,-8.425 2.195,-13.27 -0.932,-10.111 -1.422,-6.99 0,0"
       style="fill:#f7c0b0;fill-opacity:1;fill-rule:nonzero;stroke:#000000;stroke-opacity:1;stroke-width:0.63950011;stroke-dasharray:none"
       transform="matrix(1.5637214,0,0,-1.5637214,187.31681,144.63909)"
       clip-path="url(#clipPath72)" />
    <path
       id="path73"
       d="m 0,0 c 1.42,-3.236 1.367,-6.215 1.26,-9.193 -0.035,-0.985 -0.096,-2.253 -1.347,-2.269 -1.23,-0.015 -1.392,1.325 -1.481,2.243 C -1.87,-6.13 -1.498,-3.133 0,0"
       style="fill:#f9c9bc;fill-opacity:1;fill-rule:nonzero;stroke:#000000;stroke-opacity:1;stroke-width:0.63950011;stroke-dasharray:none"
       transform="matrix(1.5637214,0,0,-1.5637214,181.21298,202.56497)"
       clip-path="url(#clipPath74)" />
    <path
       id="path75"
       d="M 0,0 C 3.358,-0.748 5.175,-2.846 7.203,-4.595 7.941,-5.232 8.635,-6.319 8.005,-7.209 7.207,-8.336 6.12,-7.374 5.469,-6.831 3.323,-5.044 1.121,-3.247 0,0"
       style="fill:#fbcebf;fill-opacity:1;fill-rule:nonzero;stroke:#000000;stroke-opacity:1;stroke-width:0.63950011;stroke-dasharray:none"
       transform="matrix(1.5637214,0,0,-1.5637214,137.38687,215.64487)"
       clip-path="url(#clipPath76)" />
    <path
       id="path77"
       d="M 0,0 C -3.157,3.606 -3.483,7.144 -3.37,10.967 -0.511,8.789 0.683,5.247 0,0"
       style="fill:#fbd0bf;fill-opacity:1;fill-rule:nonzero;stroke:#000000;stroke-opacity:1;stroke-width:0.63950011;stroke-dasharray:none"
       transform="matrix(1.5637214,0,0,-1.5637214,172.08882,216.74495)"
       clip-path="url(#clipPath78)" />
    <path
       id="path79"
       d="M 0,0 C -2.631,1.705 -4.258,4.103 -4.975,7.089 -5.113,7.666 -5.134,8.435 -4.493,8.741 -3.815,9.064 -3.346,8.486 -2.955,7.999 -1.111,5.703 -0.493,2.928 0,0"
       style="fill:#fbcdbf;fill-opacity:1;fill-rule:nonzero;stroke:#000000;stroke-opacity:1;stroke-width:0.63950011;stroke-dasharray:none"
       transform="matrix(1.5637214,0,0,-1.5637214,203.80171,166.05754)"
       clip-path="url(#clipPath80)" />
    <path
       id="path81"
       d="m 0,0 c -1.319,-3.29 -4.501,-3.933 -6.735,-5.696 -0.663,-0.523 -1.46,0.191 -1.899,0.702 -0.573,0.668 0.276,1.064 0.642,1.422 C -5.823,-1.453 -3.156,-0.45 0,0"
       style="fill:#fbcdbc;fill-opacity:1;fill-rule:nonzero;stroke:#000000;stroke-opacity:1;stroke-width:0.63950011;stroke-dasharray:none"
       transform="matrix(1.5637214,0,0,-1.5637214,148.58562,168.27803)"
       clip-path="url(#clipPath82)" />
    <path
       id="path83"
       d="m 0,0 c -0.988,-3.368 -3.131,-5.087 -5.141,-6.883 -0.531,-0.474 -1.331,-0.892 -1.963,-0.159 -0.465,0.538 -0.1,1.226 0.243,1.697 C -5.212,-3.078 -3.53,-0.822 0,0"
       style="fill:#fbccc3;fill-opacity:1;fill-rule:nonzero;stroke:#000000;stroke-opacity:1;stroke-width:0.63950011;stroke-dasharray:none"
       transform="matrix(1.5637214,0,0,-1.5637214,146.85755,154.14449)"
       clip-path="url(#clipPath84)" />
    <path
       id="path85"
       d="M 0,0 C 0.408,2.641 2.18,3.736 3.595,5.08 4.281,5.733 5.124,6.026 5.858,5.123 6.526,4.302 6.252,3.513 5.622,2.78 4.249,1.18 2.37,0.619 0,0"
       style="fill:#f9ccbd;fill-opacity:1;fill-rule:nonzero;stroke:#000000;stroke-opacity:1;stroke-width:0.63950011;stroke-dasharray:none"
       transform="matrix(1.5637214,0,0,-1.5637214,150.94465,245.52697)"
       clip-path="url(#clipPath86)" />
    <path
       id="path87"
       d="M 0,0 C 1.972,-0.907 3.895,-2.005 4.726,-4.221 5.015,-4.991 4.494,-5.62 3.555,-5.654 2.347,-5.698 -1.193,-1.948 -1.043,-0.802 -0.965,-0.212 -0.634,0.023 0,0"
       style="fill:#fbcbbb;fill-opacity:1;fill-rule:nonzero;stroke:#000000;stroke-opacity:1;stroke-width:0.63950011;stroke-dasharray:none"
       transform="matrix(1.5637214,0,0,-1.5637214,166.21704,220.26332)"
       clip-path="url(#clipPath88)" />
    <path
       id="path89"
       d="M 0,0 C 0.304,-0.138 0.453,-0.156 0.489,-0.23 1.705,-2.704 1.345,-4.992 -0.451,-7.027 -0.967,-7.611 -1.776,-7.354 -1.935,-6.711 -2.582,-4.103 -1.422,-2.006 0,0"
       style="fill:#facaba;fill-opacity:1;fill-rule:nonzero;stroke:#000000;stroke-opacity:1;stroke-width:0.63950011;stroke-dasharray:none"
       transform="matrix(1.5637214,0,0,-1.5637214,128.1495,160.69679)"
       clip-path="url(#clipPath90)" />
    <path
       id="path91"
       d="m 0,0 c 0.168,-1 -0.446,-1.179 -1.073,-1.144 -1.881,0.105 -3.718,0.455 -4.503,2.469 -0.331,0.848 0.278,1.442 1.16,1.394 C -2.431,2.611 -1.02,1.515 0,0"
       style="fill:#fbcabf;fill-opacity:1;fill-rule:nonzero;stroke:#000000;stroke-opacity:1;stroke-width:0.63950011;stroke-dasharray:none"
       transform="matrix(1.5637214,0,0,-1.5637214,201.44097,144.22643)"
       clip-path="url(#clipPath92)" />
    <path
       id="path93"
       d="m 0,0 c -0.217,-0.632 -0.564,-1.152 -1.258,-1.121 -0.846,0.037 -1.353,0.588 -1.266,1.418 0.065,0.622 0.537,1.129 1.222,1.107 C -0.448,1.376 -0.047,0.81 0,0"
       style="fill:#fbbba4;fill-opacity:1;fill-rule:nonzero;stroke:#000000;stroke-opacity:1;stroke-width:0.63950011;stroke-dasharray:none"
       transform="matrix(1.5637214,0,0,-1.5637214,172.2796,120.35794)"
       clip-path="url(#clipPath94)" />
    <path
       id="path95"
       d="m 0,0 c -0.703,0.037 -1.172,0.467 -1.235,1.094 -0.081,0.8 0.343,1.458 1.217,1.462 C 0.85,2.56 1.292,1.929 1.219,1.113 1.162,0.471 0.702,0.05 0,0"
       style="fill:#f8baa5;fill-opacity:1;fill-rule:nonzero;stroke:#000000;stroke-opacity:1;stroke-width:0.63950011;stroke-dasharray:none"
       transform="matrix(1.5637214,0,0,-1.5637214,192.59562,186.58639)"
       clip-path="url(#clipPath96)" />
    <path
       id="path97"
       d="m 0,0 c 0.02,-0.712 -0.305,-1.22 -1.026,-1.245 -0.71,-0.025 -1.113,0.421 -1.115,1.158 -10e-4,0.702 0.347,1.265 1.027,1.292 C -0.439,1.232 -0.041,0.713 0,0"
       style="fill:#f7b9a3;fill-opacity:1;fill-rule:nonzero;stroke:#000000;stroke-opacity:1;stroke-width:0.63950011;stroke-dasharray:none"
       transform="matrix(1.5637214,0,0,-1.5637214,178.39265,259.8849)"
       clip-path="url(#clipPath98)" />
    <path
       id="path99"
       d="m 0,0 c -0.127,-0.82 -0.545,-1.196 -1.269,-1.1 -0.769,0.101 -0.984,0.681 -0.892,1.343 0.091,0.651 0.463,1.194 1.202,1.055 C -0.262,1.167 -0.061,0.547 0,0"
       style="fill:#fbc0a7;fill-opacity:1;fill-rule:nonzero;stroke:#000000;stroke-opacity:1;stroke-width:0.63950011;stroke-dasharray:none"
       transform="matrix(1.5637214,0,0,-1.5637214,137.32401,124.12542)"
       clip-path="url(#clipPath100)" />
    <path
       id="path103"
       d="M 0,0 C 1.606,-0.714 2.254,-0.808 2.41,0.324 2.628,1.901 3.495,1.956 4.793,1.436 7.147,0.494 5.447,-1.344 5.697,-2.709 5.895,-3.787 4.846,-4.407 3.647,-4.004 2.485,-3.613 1.299,-3.248 0.213,-2.697 -0.568,-2.3 -1.954,-2.065 -1.396,-0.701 -0.963,0.359 0.007,-0.003 0,0"
       style="fill:#cbe6e2;fill-opacity:1;fill-rule:nonzero;stroke:#000000;stroke-opacity:1;stroke-width:0.63950011;stroke-dasharray:none"
       transform="matrix(1.5637214,0,0,-1.5637214,1021.1957,482.40325)"
       clip-path="url(#clipPath104)" />
    <path
       id="path105"
       d="m 0,0 c -0.13,-0.686 -0.586,-1.266 -1.219,-1.135 -2.412,0.497 -4.842,1.029 -6.858,2.578 -0.414,0.318 -0.528,0.929 -0.06,1.265 0.358,0.256 0.959,0.423 1.369,0.315 1.907,-0.499 3.793,-1.086 5.67,-1.691 C -0.494,1.138 -0.03,0.719 0,0"
       style="fill:#cce9e5;fill-opacity:1;fill-rule:nonzero;stroke:#000000;stroke-opacity:1;stroke-width:0.63950011;stroke-dasharray:none"
       transform="matrix(1.5637214,0,0,-1.5637214,990.58129,448.45595)"
       clip-path="url(#clipPath106)" />
    <path
       id="path107"
       d="M 0,0 C 1.553,-1.089 3.433,-2.23 5.068,-3.653 5.621,-4.134 5.043,-5.252 4.122,-5.01 1.963,-4.444 0.081,-3.232 -1.333,-1.516 -1.812,-0.934 -1.354,-0.106 0,0"
       style="fill:#d0ede9;fill-opacity:1;fill-rule:nonzero;stroke:#000000;stroke-opacity:1;stroke-width:0.63950011;stroke-dasharray:none"
       transform="matrix(1.5637214,0,0,-1.5637214,1005.0646,529.57572)"
       clip-path="url(#clipPath108)" />
    <path
       id="path109"
       d="M 0,0 C 1.072,-1.032 3.155,-1.345 3.617,-3.401 3.746,-3.973 3.059,-4.347 2.633,-4.15 1.003,-3.398 -1.026,-3.031 -1.534,-0.921 -1.683,-0.299 -1.061,0.154 0,0"
       style="fill:#cdeee8;fill-opacity:1;fill-rule:nonzero;stroke:#000000;stroke-opacity:1;stroke-width:0.63950011;stroke-dasharray:none"
       transform="matrix(1.5637214,0,0,-1.5637214,952.53392,534.30254)"
       clip-path="url(#clipPath110)" />
    <path
       id="path111"
       d="M 0,0 C 1.246,-0.658 2.922,-1.117 3.153,-2.99 3.228,-3.606 2.589,-4.243 1.931,-3.834 0.699,-3.07 -1.381,-3.138 -1.28,-0.92 -1.25,-0.263 -0.998,0.279 0,0"
       style="fill:#cbece7;fill-opacity:1;fill-rule:nonzero;stroke:#000000;stroke-opacity:1;stroke-width:0.63950011;stroke-dasharray:none"
       transform="matrix(1.5637214,0,0,-1.5637214,1017.7896,579.10925)"
       clip-path="url(#clipPath112)" />
    <path
       id="path113"
       d="M 0,0 C 0.058,-0.926 -0.423,-1.552 -1.02,-1.383 -2.411,-0.989 -3.909,-0.464 -4.263,1.195 -4.409,1.878 -3.73,2.332 -3.041,2.14 -1.741,1.777 -0.458,1.308 0,0"
       style="fill:#c7ebe5;fill-opacity:1;fill-rule:nonzero;stroke:#000000;stroke-opacity:1;stroke-width:0.63950011;stroke-dasharray:none"
       transform="matrix(1.5637214,0,0,-1.5637214,1008.459,525.7518)"
       clip-path="url(#clipPath114)" />
    <path
       id="path115"
       d="m 0,0 c 0.183,-0.968 -0.367,-1.347 -1.019,-1.211 -1.219,0.253 -2.422,0.749 -2.924,2.014 -0.262,0.659 0.255,1.362 0.88,1.382 C -1.505,2.234 -0.738,1.016 0,0"
       style="fill:#c9eae5;fill-opacity:1;fill-rule:nonzero;stroke:#000000;stroke-opacity:1;stroke-width:0.63950011;stroke-dasharray:none"
       transform="matrix(1.5637214,0,0,-1.5637214,980.09779,487.52068)"
       clip-path="url(#clipPath116)" />
    <path
       id="path117"
       d="m 0,0 c -0.208,-0.684 -0.646,-1.235 -1.321,-0.979 -1.224,0.464 -2.668,0.842 -2.72,2.561 C -4.059,2.16 -3.558,2.55 -3.066,2.38 -1.793,1.938 -0.522,1.413 0,0"
       style="fill:#d0ece8;fill-opacity:1;fill-rule:nonzero;stroke:#000000;stroke-opacity:1;stroke-width:0.63950011;stroke-dasharray:none"
       transform="matrix(1.5637214,0,0,-1.5637214,989.2168,454.88112)"
       clip-path="url(#clipPath118)" />
    <path
       id="path119"
       d="M 0,0 C -0.534,-1.114 -1.245,-1.023 -1.946,-0.678 -2.797,-0.26 -3.945,0.071 -3.598,1.355 -3.341,2.306 -2.487,2.131 -1.794,1.83 -0.905,1.443 -0.044,0.979 0,0"
       style="fill:#cdebe7;fill-opacity:1;fill-rule:nonzero;stroke:#000000;stroke-opacity:1;stroke-width:0.63950011;stroke-dasharray:none"
       transform="matrix(1.5637214,0,0,-1.5637214,1022.677,589.96805)"
       clip-path="url(#clipPath120)" />
    <path
       id="path121"
       d="M 0,0 C -0.073,-0.804 -0.573,-1.134 -1.241,-0.962 -2.37,-0.671 -3.16,0.107 -3.459,1.233 -3.64,1.916 -3.144,2.633 -2.53,2.444 -1.343,2.078 -0.514,1.132 0,0"
       style="fill:#c9ece6;fill-opacity:1;fill-rule:nonzero;stroke:#000000;stroke-opacity:1;stroke-width:0.63950011;stroke-dasharray:none"
       transform="matrix(1.5637214,0,0,-1.5637214,981.27715,496.08628)"
       clip-path="url(#clipPath122)" />
    <path
       id="path123"
       d="M 0,0 C 0.844,-0.37 1.857,-0.733 1.793,-1.926 1.755,-2.646 1.038,-2.94 0.419,-2.704 -0.382,-2.398 -1.167,-1.848 -1.28,-0.932 -1.369,-0.203 -0.776,0.086 0,0"
       style="fill:#cfeee9;fill-opacity:1;fill-rule:nonzero;stroke:#000000;stroke-opacity:1;stroke-width:0.63950011;stroke-dasharray:none"
       transform="matrix(1.5637214,0,0,-1.5637214,960.525,532.92349)"
       clip-path="url(#clipPath124)" />
    <path
       id="path127"
       d="M 0,0 C -1.371,-0.052 -1.259,0.684 -0.969,1.674 -0.284,4.011 1.117,5.849 2.874,7.455 3.441,7.973 4.117,8.319 4.892,7.922 5.596,7.56 5.982,6.976 5.977,6.136 5.966,4.396 1.782,0.076 0,0"
       style="fill:#f9d3c2;fill-opacity:1;fill-rule:nonzero;stroke:#000000;stroke-opacity:1;stroke-width:0.63950011;stroke-dasharray:none"
       transform="matrix(1.5637214,0,0,-1.5637214,125.57702,444.80325)"
       clip-path="url(#clipPath128)" />
    <path
       id="path129"
       d="M 0,0 C -4.587,-0.102 -7.488,1.209 -10.985,5.281 -6.304,4.78 -2.324,4.227 -0.037,-0.032 -0.038,-0.032 0,0 0,0"
       style="fill:#fbcdbb;fill-opacity:1;fill-rule:nonzero;stroke:#000000;stroke-opacity:1;stroke-width:0.63950011;stroke-dasharray:none"
       transform="matrix(1.5637214,0,0,-1.5637214,117.45631,492.90176)"
       clip-path="url(#clipPath130)" />
    <path
       id="path131"
       d="M 0,0 C -0.24,-0.043 -0.483,-0.069 -0.727,-0.078 -3.233,3.069 -4.002,6.639 -3.204,10.606 -1.068,7.4 1.308,4.278 0,0"
       style="fill:#fbcec2;fill-opacity:1;fill-rule:nonzero;stroke:#000000;stroke-opacity:1;stroke-width:0.63950011;stroke-dasharray:none"
       transform="matrix(1.5637214,0,0,-1.5637214,144.4108,476.48112)"
       clip-path="url(#clipPath132)" />
    <path
       id="path133"
       d="m 0,0 c 2.745,-1.882 4.374,-3.839 5.482,-6.256 0.471,-1.027 1.237,-2.35 0.193,-3.062 -1.204,-0.821 -1.961,0.643 -2.56,1.48 C 1.596,-5.715 0.498,-3.382 0,0"
       style="fill:#fbd1c1;fill-opacity:1;fill-rule:nonzero;stroke:#000000;stroke-opacity:1;stroke-width:0.63950011;stroke-dasharray:none"
       transform="matrix(1.5637214,0,0,-1.5637214,124.42081,458.97026)"
       clip-path="url(#clipPath134)" />
    <path
       id="path135"
       d="m 0,0 c -2.876,1.234 -5.243,2.937 -6.935,5.448 -0.34,0.505 -0.852,1.089 -0.437,1.655 0.554,0.756 1.335,0.389 1.986,0.014 C -2.603,5.51 -1.192,2.84 0,0"
       style="fill:#fccebc;fill-opacity:1;fill-rule:nonzero;stroke:#000000;stroke-opacity:1;stroke-width:0.63950011;stroke-dasharray:none"
       transform="matrix(1.5637214,0,0,-1.5637214,150.84691,416.9002)"
       clip-path="url(#clipPath136)" />
    <path
       id="path137"
       d="M 0,0 C 3.938,-2.455 4.75,-5.734 5.058,-9.289 2.224,-7.11 0.057,-4.569 0,0"
       style="fill:#fbd0c1;fill-opacity:1;fill-rule:nonzero;stroke:#000000;stroke-opacity:1;stroke-width:0.63950011;stroke-dasharray:none"
       transform="matrix(1.5637214,0,0,-1.5637214,129.14965,404.91381)"
       clip-path="url(#clipPath138)" />
    <path
       id="path139"
       d="M 0,0 C 2.957,0.269 5.291,0.035 6.709,-2.484 7.016,-3.029 6.701,-3.883 5.981,-3.942 3.169,-4.172 1.463,-2.631 0,0"
       style="fill:#fad0c0;fill-opacity:1;fill-rule:nonzero;stroke:#000000;stroke-opacity:1;stroke-width:0.63950011;stroke-dasharray:none"
       transform="matrix(1.5637214,0,0,-1.5637214,127.90806,480.65735)"
       clip-path="url(#clipPath140)" />
    <path
       id="path141"
       d="M 0,0 C 0.207,2.368 0.719,3.979 1.764,5.357 2.415,6.216 3.269,7.327 4.467,6.506 5.498,5.8 4.814,4.715 4.326,3.878 3.398,2.286 2.208,0.957 0,0"
       style="fill:#fbcebe;fill-opacity:1;fill-rule:nonzero;stroke:#000000;stroke-opacity:1;stroke-width:0.63950011;stroke-dasharray:none"
       transform="matrix(1.5637214,0,0,-1.5637214,121.4158,509.42811)"
       clip-path="url(#clipPath142)" />
    <path
       id="path143"
       d="M 0,0 C -2.817,-1.504 -5.039,-1.715 -7.1,0.069 -7.581,0.485 -7.491,1.35 -6.83,1.672 -4.217,2.946 -2.492,1.046 0,0"
       style="fill:#facfbf;fill-opacity:1;fill-rule:nonzero;stroke:#000000;stroke-opacity:1;stroke-width:0.63950011;stroke-dasharray:none"
       transform="matrix(1.5637214,0,0,-1.5637214,144.40986,397.34587)"
       clip-path="url(#clipPath144)" />
    <path
       id="path145"
       d="M 0,0 C 8.839,2.176 17.727,4.083 26.838,4.769 26.911,4.37 26.984,3.971 27.057,3.573 18.117,1.95 9.177,0.327 0.237,-1.295 0.158,-0.864 0.079,-0.432 0,0"
       style="fill:#cb7657;fill-opacity:1;fill-rule:nonzero;stroke:#000000;stroke-opacity:1;stroke-width:0.63950011;stroke-dasharray:none"
       transform="matrix(1.5637214,0,0,-1.5637214,825.09562,461.78104)"
       clip-path="url(#clipPath146)" />
    <path
       id="path147"
       d="M 0,0 C -0.018,1.833 -0.202,3.693 0.892,5.341 4.97,3.059 9.046,0.776 13.958,-1.976 8.406,-2.735 4.38,-0.113 0,0"
       style="fill:#e5e4dd;fill-opacity:1;fill-rule:nonzero;stroke:#000000;stroke-opacity:1;stroke-width:0.63950011;stroke-dasharray:none"
       transform="matrix(1.5637214,0,0,-1.5637214,795.26858,374.49395)"
       clip-path="url(#clipPath148)" />
    <path
       id="path151"
       d="m 0,0 c -7.459,-0.391 -14.621,1.415 -21.848,2.842 -1.71,0.338 -2.402,1.245 -2.526,2.645 -0.172,1.942 1.586,0.923 2.419,1.354 0.538,0.279 1.5,0.631 1.495,0.938 -0.088,5.371 5.726,3.627 7.694,6.457 1.562,2.586 4.687,1.606 6.783,2.974 5.733,1.128 11.246,3.03 16.685,5.076 7.145,2.688 14.236,3.474 21.773,1.624 5.753,-1.411 11.714,-1.972 17.576,-2.952 0.842,-0.14 1.646,-0.511 2.468,-0.775 C 47.733,17.013 42.13,15.749 36.892,13.683 24.694,8.871 12.309,4.531 0,0"
       style="fill:#81c8e0;fill-opacity:1;fill-rule:nonzero;stroke:#000000;stroke-opacity:1;stroke-width:0.63950011;stroke-dasharray:none"
       transform="matrix(1.5637214,0,0,-1.5637214,427.0694,269.04847)"
       clip-path="url(#clipPath152)" />
    <path
       id="path155"
       d="m 0,0 c -8.767,-8.021 -39.788,-13.09 -47.212,-7.193 8.832,-1.657 16.773,-1.696 24.574,0.059 C -14.916,-5.396 -7.548,-2.377 0,0"
       style="fill:#cb7658;fill-opacity:1;fill-rule:nonzero;stroke:#000000;stroke-opacity:1;stroke-width:0.63950011;stroke-dasharray:none"
       transform="matrix(1.5637214,0,0,-1.5637214,425.11976,207.33307)"
       clip-path="url(#clipPath156)" />
    <path
       id="path157"
       d="M 0,0 C -1.513,-1.271 -3.111,-2.319 -5.23,-2.011 -3.996,-0.013 -1.841,-0.416 0,0"
       style="fill:#eba286;fill-opacity:1;fill-rule:nonzero;stroke:#000000;stroke-opacity:1;stroke-width:0.63950011;stroke-dasharray:none"
       transform="matrix(1.5637214,0,0,-1.5637214,383.68895,252.64628)"
       clip-path="url(#clipPath158)" />
    <path
       id="path159"
       d="M 0,0 C -2.221,5.681 -3.377,11.211 -0.111,16.448 1.981,11.058 2.476,5.467 0,0"
       style="fill:#f8cabe;fill-opacity:1;fill-rule:nonzero;stroke:#000000;stroke-opacity:1;stroke-width:0.63950011;stroke-dasharray:none"
       transform="matrix(1.5637214,0,0,-1.5637214,237.82391,220.09992)"
       clip-path="url(#clipPath160)" />
    <path
       id="path161"
       d="m 0,0 c -3.472,3.93 -4.657,7.916 -5.703,11.942 -0.25,0.96 -0.051,2.185 1.088,2.448 1.097,0.253 1.834,-0.707 2.201,-1.642 C -0.924,8.959 0.451,5.133 0,0"
       style="fill:#f8cabd;fill-opacity:1;fill-rule:nonzero;stroke:#000000;stroke-opacity:1;stroke-width:0.63950011;stroke-dasharray:none"
       transform="matrix(1.5637214,0,0,-1.5637214,256.75387,226.20828)"
       clip-path="url(#clipPath162)" />
    <path
       id="path163"
       d="M 0,0 C 0.112,3.532 2.394,5.825 4.649,8.133 7.762,8.165 8.115,6.606 6.602,4.384 5.032,2.076 2.88,0.437 0,0"
       style="fill:#f9d3c6;fill-opacity:1;fill-rule:nonzero;stroke:#000000;stroke-opacity:1;stroke-width:0.63950011;stroke-dasharray:none"
       transform="matrix(1.5637214,0,0,-1.5637214,232.39718,259.6591)"
       clip-path="url(#clipPath164)" />
    <path
       id="path165"
       d="M 0,0 C 1.789,2.861 3.573,4.662 5.875,5.941 6.928,6.527 8.038,6.794 8.822,5.595 9.602,4.403 8.913,3.442 7.989,2.718 5.838,1.034 3.549,-0.333 0,0"
       style="fill:#f9cdc0;fill-opacity:1;fill-rule:nonzero;stroke:#000000;stroke-opacity:1;stroke-width:0.63950011;stroke-dasharray:none"
       transform="matrix(1.5637214,0,0,-1.5637214,250.79264,173.67599)"
       clip-path="url(#clipPath166)" />
    <path
       id="path167"
       d="M 0,0 C -3.492,0.437 -5.683,1.907 -7.538,3.969 -8.348,4.87 -8.76,5.977 -7.844,6.964 -7.033,7.836 -5.977,7.485 -5.165,6.821 -3.065,5.104 -1.03,3.315 0,0"
       style="fill:#f9cdc1;fill-opacity:1;fill-rule:nonzero;stroke:#000000;stroke-opacity:1;stroke-width:0.63950011;stroke-dasharray:none"
       transform="matrix(1.5637214,0,0,-1.5637214,259.36793,197.37279)"
       clip-path="url(#clipPath168)" />
    <path
       id="path169"
       d="m 0,0 c 0.71,-3.321 0.399,-6.074 -0.819,-8.711 -0.365,-0.791 -0.988,-1.563 -2.006,-1.351 -1.202,0.249 -1.566,1.312 -1.348,2.309 C -3.566,-4.987 -2.932,-2.183 0,0"
       style="fill:#facec1;fill-opacity:1;fill-rule:nonzero;stroke:#000000;stroke-opacity:1;stroke-width:0.63950011;stroke-dasharray:none"
       transform="matrix(1.5637214,0,0,-1.5637214,221.41626,221.14855)"
       clip-path="url(#clipPath170)" />
    <path
       id="path171"
       d="m 0,0 c 0.659,-0.152 1.078,-0.529 1.108,-1.229 0.029,-0.707 -0.325,-1.197 -1.027,-1.225 -0.7,-0.028 -1.095,0.41 -1.106,1.138 C -1.036,-0.602 -0.612,-0.227 0,0"
       style="fill:#fcc2ab;fill-opacity:1;fill-rule:nonzero;stroke:#000000;stroke-opacity:1;stroke-width:0.63950011;stroke-dasharray:none"
       transform="matrix(1.5637214,0,0,-1.5637214,235.30633,157.162)"
       clip-path="url(#clipPath172)" />
    <path
       id="path173"
       d="M 0,0 C 0.662,-0.211 0.978,-0.677 0.957,-1.358 0.935,-2.088 0.529,-2.49 -0.193,-2.403 -0.896,-2.319 -1.241,-1.831 -1.17,-1.128 -1.102,-0.45 -0.699,-0.059 0,0"
       style="fill:#fdc7ac;fill-opacity:1;fill-rule:nonzero;stroke:#000000;stroke-opacity:1;stroke-width:0.63950011;stroke-dasharray:none"
       transform="matrix(1.5637214,0,0,-1.5637214,271.92462,147.8552)"
       clip-path="url(#clipPath174)" />
    <path
       id="path175"
       d="m 0,0 c -0.737,0.035 -1.163,0.463 -1.263,1.087 -0.109,0.671 0.279,1.192 0.937,1.34 C 0.463,2.604 0.749,2.035 0.802,1.39 0.852,0.767 0.708,0.183 0,0"
       style="fill:#fcbfac;fill-opacity:1;fill-rule:nonzero;stroke:#000000;stroke-opacity:1;stroke-width:0.63950011;stroke-dasharray:none"
       transform="matrix(1.5637214,0,0,-1.5637214,221.82736,202.98107)"
       clip-path="url(#clipPath176)" />
    <path
       id="path177"
       d="m 0,0 c -1.296,1.147 -0.667,2.458 -0.356,3.77 1.194,5.037 2.071,10.174 3.634,15.093 1.076,3.384 -0.667,3.921 -3.069,4.282 -5.472,0.822 -10.954,1.579 -16.436,2.334 -1.336,0.184 -2.662,0.277 -1.705,2.196 7.261,-0.952 14.501,-2.203 21.792,-2.729 3.596,-0.26 6.864,1.968 10.078,3.611 1.444,0.737 2.829,1.61 4.322,2.224 1.672,0.688 1.106,-0.652 1.111,-1.42 C 14.991,27.623 11.325,24.444 6.747,23.108 5.362,22.704 5.443,21.55 5.212,20.449 3.765,13.56 2.341,6.662 0,0"
       style="fill:#cfedf5;fill-opacity:1;fill-rule:nonzero;stroke:#000000;stroke-opacity:1;stroke-width:0.63950011;stroke-dasharray:none"
       transform="matrix(1.5637214,0,0,-1.5637214,734.24888,358.10475)"
       clip-path="url(#clipPath178)" />
    <path
       id="path179"
       d="m 0,0 c -0.201,-1.991 -1.77,-1.528 -2.843,-1.359 -7.889,1.242 -15.762,2.593 -23.776,3.932 0.464,1.87 1.879,0.96 2.751,1.304 C -15.912,2.585 -7.956,1.292 0,0"
       style="fill:#caebf5;fill-opacity:1;fill-rule:nonzero;stroke:#000000;stroke-opacity:1;stroke-width:0.63950011;stroke-dasharray:none"
       transform="matrix(1.5637214,0,0,-1.5637214,560.56915,290.26222)"
       clip-path="url(#clipPath180)" />
    <path
       id="path181"
       d="M 0,0 C -4.451,-1.61 -8.406,-0.548 -12.042,2.234 -7.862,2.383 -3.917,1.266 0,0"
       style="fill:#c4eefa;fill-opacity:1;fill-rule:nonzero;stroke:#000000;stroke-opacity:1;stroke-width:0.63950011;stroke-dasharray:none"
       transform="matrix(1.5637214,0,0,-1.5637214,586.6073,295.98309)"
       clip-path="url(#clipPath182)" />
    <path
       id="path185"
       d="m 0,0 c 8.492,-1.08 16.986,-2.148 25.476,-3.244 7.133,-0.92 14.249,-1.986 21.398,-2.748 2.343,-0.25 2.65,-1.291 2.308,-3.183 -1.697,-9.391 -3.522,-18.762 -4.98,-28.19 -0.454,-2.929 -1.618,-3.576 -4.205,-2.985 -15.122,3.452 -30.242,6.912 -45.387,10.263 -1.977,0.438 -2.452,1.528 -2.249,3.178 0.997,8.123 2.034,16.241 3.086,24.357 C -4.183,0.303 -2.052,0.068 0,0"
       style="fill:#ddeae8;fill-opacity:1;fill-rule:nonzero;stroke:#000000;stroke-opacity:1;stroke-width:0.63950011;stroke-dasharray:none"
       transform="matrix(1.5637214,0,0,-1.5637214,578.58432,515.14038)"
       clip-path="url(#clipPath186)" />
    <path
       id="path189"
       d="m 0,0 c 6.984,-4.729 12.015,-11.425 17.617,-17.542 0.549,-0.599 1.34,-1.548 0.652,-2.29 -0.944,-1.019 -2.11,-0.373 -2.989,0.362 C 9.776,-14.868 3.735,-10.876 -0.895,-5.278 -0.597,-3.519 -0.299,-1.759 0,0"
       style="fill:#72a8bd;fill-opacity:1;fill-rule:nonzero;stroke:#000000;stroke-opacity:1;stroke-width:0.63950011;stroke-dasharray:none"
       transform="matrix(1.5637214,0,0,-1.5637214,713.26358,455.50161)"
       clip-path="url(#clipPath190)" />
    <path
       id="path193"
       d="M 0,0 C 3.171,-1.736 5.845,-4.117 8.467,-6.557 9.174,-7.215 10.132,-8.003 9.393,-9.069 8.776,-9.959 7.83,-9.375 7.022,-9.072 4.116,-7.98 1.268,-6.794 -0.915,-4.459 0.019,-3.102 -0.045,-1.54 0,0"
       style="fill:#78a6b6;fill-opacity:1;fill-rule:nonzero;stroke:#000000;stroke-opacity:1;stroke-width:0.63950011;stroke-dasharray:none"
       transform="matrix(1.5637214,0,0,-1.5637214,696.83637,533.15883)"
       clip-path="url(#clipPath194)" />
    <path
       id="path197"
       d="M 0,0 C 3.871,-2.546 7.394,-5.453 9.873,-9.519 5.626,-8.388 2.093,-6.172 -0.851,-2.984 -0.75,-1.937 -1.112,-0.758 0,0"
       style="fill:#7fa4b2;fill-opacity:1;fill-rule:nonzero;stroke:#000000;stroke-opacity:1;stroke-width:0.63950011;stroke-dasharray:none"
       transform="matrix(1.5637214,0,0,-1.5637214,705.08704,497.52991)"
       clip-path="url(#clipPath198)" />
    <path
       id="path205"
       d="M 0,0 C -0.19,2.336 -3.475,3.915 -1.651,6.745 3.573,4.317 4.961,-0.58 6.955,-6.082 3.616,-4.319 2.148,-1.775 0,0"
       style="fill:#fad7c8;fill-opacity:1;fill-rule:nonzero;stroke:#000000;stroke-opacity:1;stroke-width:0.63950011;stroke-dasharray:none"
       transform="matrix(1.5637214,0,0,-1.5637214,206.87959,447.09097)"
       clip-path="url(#clipPath206)" />
    <path
       id="path207"
       d="m 0,0 c 4.424,-1.632 4.099,-5.941 5.128,-9.396 0.437,-1.465 0.043,-3.178 0.025,-4.777 -0.747,0.718 -1.494,1.435 -2.241,2.152 -0.146,1.778 -1.099,3.174 -2.145,4.526 C 0.755,-4.972 -1.241,-2.651 0,0"
       style="fill:#f9d8cb;fill-opacity:1;fill-rule:nonzero;stroke:#000000;stroke-opacity:1;stroke-width:0.63950011;stroke-dasharray:none"
       transform="matrix(1.5637214,0,0,-1.5637214,190.19358,435.52851)"
       clip-path="url(#clipPath208)" />
    <path
       id="path209"
       d="M 0,0 C 0.296,2.86 -0.411,5.928 1.701,8.489 3.844,7.456 2.575,5.019 3.825,3.696 3.729,2.497 3.744,1.276 3.5,0.108 3.308,-0.812 2.926,-1.868 1.751,-1.943 0.474,-2.023 0.284,-0.923 0,0"
       style="fill:#f9d5c7;fill-opacity:1;fill-rule:nonzero;stroke:#000000;stroke-opacity:1;stroke-width:0.63950011;stroke-dasharray:none"
       transform="matrix(1.5637214,0,0,-1.5637214,179.42252,476.61951)"
       clip-path="url(#clipPath210)" />
    <path
       id="path211"
       d="M 0,0 C -0.022,3.505 1.561,5.636 3.604,7.516 4.318,8.173 5.114,9.024 6.158,8.082 7.016,7.308 6.988,6.24 6.481,5.338 5.106,2.897 3.1,1.15 0,0"
       style="fill:#fad2c1;fill-opacity:1;fill-rule:nonzero;stroke:#000000;stroke-opacity:1;stroke-width:0.63950011;stroke-dasharray:none"
       transform="matrix(1.5637214,0,0,-1.5637214,198.41595,408.15165)"
       clip-path="url(#clipPath212)" />
    <path
       id="path213"
       d="M 0,0 C -0.719,3.532 0.468,6.079 1.974,8.513 2.421,9.234 3.115,9.933 4.145,9.54 5.194,9.14 5.097,8.156 5.045,7.31 4.849,4.137 2.707,2.246 0,0"
       style="fill:#fad5c6;fill-opacity:1;fill-rule:nonzero;stroke:#000000;stroke-opacity:1;stroke-width:0.63950011;stroke-dasharray:none"
       transform="matrix(1.5637214,0,0,-1.5637214,203.49179,496.44109)"
       clip-path="url(#clipPath214)" />
    <path
       id="path215"
       d="m 0,0 c -1.764,0.136 -3.44,0.546 -4.894,1.595 -0.874,0.63 -1.407,1.477 -0.902,2.565 0.512,1.103 1.627,1.295 2.555,0.934 C -1.751,4.515 -0.337,3.701 1.028,2.856 1.824,2.363 3.059,1.803 2.653,0.671 2.237,-0.492 0.91,0.214 0,0"
       style="fill:#f9d5c4;fill-opacity:1;fill-rule:nonzero;stroke:#000000;stroke-opacity:1;stroke-width:0.63950011;stroke-dasharray:none"
       transform="matrix(1.5637214,0,0,-1.5637214,206.59046,428.56354)"
       clip-path="url(#clipPath216)" />
    <path
       id="path217"
       d="M 0,0 C -6.421,1.212 -12.52,2.364 -18.787,3.547 -15.987,5.408 -1.923,2.889 0,0"
       style="fill:#8fb3c1;fill-opacity:1;fill-rule:nonzero;stroke:#000000;stroke-opacity:1;stroke-width:0.63950011;stroke-dasharray:none"
       transform="matrix(1.5637214,0,0,-1.5637214,625.91942,545.04234)"
       clip-path="url(#clipPath218)" />
    <path
       id="path219"
       d="m 0,0 c 4.552,1.12 8.707,-1.25 13.135,-1.288 1.598,-0.013 3.202,-0.388 4.784,-0.696 0.433,-0.084 0.922,-0.45 0.805,-1.076 -0.119,-0.642 -0.642,-0.681 -1.137,-0.636 -0.365,0.032 -0.714,0.213 -1.08,0.279 C 10.985,-2.434 5.346,-2.047 0,0"
       style="fill:#8fb1bd;fill-opacity:1;fill-rule:nonzero;stroke:#000000;stroke-opacity:1;stroke-width:0.63950011;stroke-dasharray:none"
       transform="matrix(1.5637214,0,0,-1.5637214,575.48987,544.3446)"
       clip-path="url(#clipPath220)" />
    <path
       id="path221"
       d="m 0,0 c -3.029,-0.231 -4.89,-0.498 -6.755,0.615 -2.34,1.396 -5.066,-0.508 -7.519,0.65 -0.543,0.257 -1.26,0.218 -1.368,0.971 -0.076,0.534 0.304,1.121 0.78,1.045 C -10.214,2.535 -5.173,3.673 0,0"
       style="fill:#90b4c2;fill-opacity:1;fill-rule:nonzero;stroke:#000000;stroke-opacity:1;stroke-width:0.63950011;stroke-dasharray:none"
       transform="matrix(1.5637214,0,0,-1.5637214,600.64217,530.04374)"
       clip-path="url(#clipPath222)" />
    <path
       id="path223"
       d="m 0,0 c 4.96,-0.86 9.923,-1.702 14.873,-2.617 0.347,-0.064 0.655,-0.634 0.845,-1.033 0.048,-0.1 -0.487,-0.692 -0.664,-0.653 C 9.973,-3.184 4.662,-3.059 -0.271,-1.302 -0.18,-0.868 -0.09,-0.434 0,0"
       style="fill:#8fb4c3;fill-opacity:1;fill-rule:nonzero;stroke:#000000;stroke-opacity:1;stroke-width:0.63950011;stroke-dasharray:none"
       transform="matrix(1.5637214,0,0,-1.5637214,606.07219,529.26188)"
       clip-path="url(#clipPath224)" />
    <path
       id="path225"
       d="m 0,0 c -3.808,-2.103 -7.047,0.115 -10.502,0.434 -0.576,0.053 -1.001,0.394 -0.878,0.918 0.189,0.806 0.95,1.321 1.678,1.151 C -6.451,1.741 -3.231,0.847 0,0"
       style="fill:#96b5c2;fill-opacity:1;fill-rule:nonzero;stroke:#000000;stroke-opacity:1;stroke-width:0.63950011;stroke-dasharray:none"
       transform="matrix(1.5637214,0,0,-1.5637214,592.00746,536.90863)"
       clip-path="url(#clipPath226)" />
    <path
       id="path227"
       d="M 0,0 C 4.239,1.537 7.121,-1.474 11.436,-0.874 8.1,-2.962 6.637,-2.783 0,0"
       style="fill:#95b0bb;fill-opacity:1;fill-rule:nonzero;stroke:#000000;stroke-opacity:1;stroke-width:0.63950011;stroke-dasharray:none"
       transform="matrix(1.5637214,0,0,-1.5637214,609.50613,550.14882)"
       clip-path="url(#clipPath228)" />
    <path
       id="path229"
       d="M 0,0 C -2.427,-0.687 -4.499,0.281 -6.594,1.223 -4.132,2.452 -2.049,1.179 0,0"
       style="fill:#93aeb8;fill-opacity:1;fill-rule:nonzero;stroke:#000000;stroke-opacity:1;stroke-width:0.63950011;stroke-dasharray:none"
       transform="matrix(1.5637214,0,0,-1.5637214,640.77133,546.42811)"
       clip-path="url(#clipPath230)" />
  </g>
</svg>
